<svg xmlns="http://www.w3.org/2000/svg" viewBox="0 0 38.5 28.5"><defs><style>.cls-1{fill:#673ab7;}.cls-2{fill:#178ff4;}.cls-3{fill:#020202;}.cls-4{fill:#292627;}.cls-5{fill:#1c8ded;}</style></defs><g id="katman_2" data-name="katman 2"><g id="katman_1-2" data-name="katman 1"><path class="cls-1" d="M19.83,13.4a1,1,0,0,0,.57-1.32A1.08,1.08,0,0,0,19,11.53a1,1,0,0,0-.57,1.33A1.07,1.07,0,0,0,19.83,13.4Z"/><path class="cls-2" d="M30.69,8.54H22.05L19.39.42,16.74,8.54H8.1l7,5.06-2.67,8.18,7-5.06,7,5.06L23.71,13.6ZM26.47,9.91l-3.21,2.32L22.5,9.91ZM19.39,4.84l1.22,3.7H18.19ZM12.32,9.91h4l-.76,2.32ZM15,18.19l1.22-3.75,2,1.43Zm1.67-5.12,1-3.16h3.32l1,3.17L19.4,15Zm7.06,5.12-3.2-2.32,2-1.43ZM21.89,5.29l-.51-1.57a9.08,9.08,0,0,1,5.62,4H25.31a7.62,7.62,0,0,0-3.42-2.39ZM13.16,16.72l-.51,1.57a8.86,8.86,0,0,1-2.16-7l1.31.95v.14a7.49,7.49,0,0,0,1.36,4.3Zm.32-9H11.79a9,9,0,0,1,5.62-4L16.9,5.29A7.56,7.56,0,0,0,13.48,7.69Zm14.89,4.73a8.85,8.85,0,0,1-2.23,5.86l-.51-1.56A7.42,7.42,0,0,0,27,12.42v-.14l1.31-.95a8,8,0,0,1,.07,1.09Z"/><path class="cls-3" d="M35.31,19.55l.26.11a.33.33,0,0,1,.17.36c0,.16-.08.31-.26.35l-.35.07c.24.36.64.33,1-.07a2.93,2.93,0,0,0,.08.93l0-.18h0c0,.22,0,.43.07.65,0,0,0,.09,0,.09s0-.06,0-.09,0-.17,0-.26c-.11-1.4-.29-2.78-.29-4.18v-.56c0-.19,0-.37,0-.55s0-.36,0-.58a14.68,14.68,0,0,0,0,4.08C35.82,19.41,35.56,19.36,35.31,19.55Z"/><path class="cls-3" d="M35.19,22.73a.3.3,0,0,0,.3.31.28.28,0,0,0,.28-.29.29.29,0,0,0-.28-.31A.28.28,0,0,0,35.19,22.73Zm.44,0c0,.07,0,.15-.13.15s-.14,0-.14-.13,0-.16.13-.15S35.63,22.64,35.63,22.73Z"/><path class="cls-3" d="M29.63,13c.06-.2.12-.39.17-.58a.16.16,0,0,1,.14-.13l.7-.17c-.24-.08-.46-.16-.68-.22a.24.24,0,0,1-.18-.18c-.06-.22-.13-.43-.21-.68a2.17,2.17,0,0,0-.11.44A.5.5,0,0,1,29,12a.68.68,0,0,0-.28.12C29.21,12.15,29.43,12.32,29.63,13Z"/><path class="cls-3" d="M10,11c-.06-.22-.13-.43-.21-.68-.07.22-.13.4-.18.59a.29.29,0,0,1-.25.26c-.19,0-.38.11-.6.17.24.08.45.15.66.2a.2.2,0,0,1,.17.18c.06.21.13.41.21.66.07-.25.14-.46.19-.67a.17.17,0,0,1,.13-.14l.69-.23-.68-.21A.17.17,0,0,1,10,11Z"/><path class="cls-3" d="M13,18.86c-.05.18-.1.32-.13.46a.18.18,0,0,1-.15.15l-.53.15a2.66,2.66,0,0,0,.45.13.29.29,0,0,1,.25.26c0,.13.09.25.13.4a1.46,1.46,0,0,0,.12-.39c0-.13.08-.23.23-.26a1,1,0,0,0,.36-.12C13.25,19.59,13.07,19.28,13,18.86Z"/><path class="cls-3" d="M17,22.41l-2.34-.63C15.09,22.34,16.58,22.77,17,22.41Z"/><path class="cls-3" d="M34.88,23.33a.3.3,0,0,0-.31.29.32.32,0,0,0,.31.31.28.28,0,0,0,.28-.3A.27.27,0,0,0,34.88,23.33Zm0,.41a.13.13,0,0,1-.13-.13.14.14,0,0,1,.16-.14c.08,0,.12.06.12.14S35,23.73,34.89,23.74Z"/><path class="cls-3" d="M30.36,17.84c-.16.33-.33.63-.77.53,0,.11.08.11.14.12a.45.45,0,0,0,.4-.12,1.22,1.22,0,0,0,.38-.85Z"/><path class="cls-3" d="M34.61,13.93l.22.07s.09.05.07.1-.07,0-.1,0-.11-.06-.15,0a.14.14,0,0,0,0,.18.23.23,0,0,0,.34,0,.23.23,0,0,0-.05-.33,1,1,0,0,0-.18-.09.62.62,0,0,1-.32-.21c0-.07-.09-.14-.06-.2s.11,0,.17,0h.08a.18.18,0,0,1,.19.16.26.26,0,0,0,.35.15s.06,0,0-.08,0,0-.08,0a.14.14,0,0,1-.18-.07.18.18,0,0,1,0-.2.13.13,0,0,1,.14,0,.18.18,0,0,1,.14.18s0,.09,0,.1a.11.11,0,0,0,.1-.09.19.19,0,0,0,0-.13.29.29,0,0,0-.49-.14s-.09.09-.16.06l-.36-.1A.54.54,0,0,1,35,13a.61.61,0,0,0,.3,0,.26.26,0,0,0,.19-.21.2.2,0,0,0-.13-.23.26.26,0,0,0-.31,0s-.08.08,0,.14.09,0,.12,0,.1-.06.14,0,0,.1,0,.13a.15.15,0,0,1-.13,0l-.3-.05a.24.24,0,0,0-.23,0c-.17.17-.37.32-.29.63A.58.58,0,0,0,34.61,13.93Z"/><path class="cls-3" d="M33.59,16.33c-.05.05,0,.09,0,.14-.05.39-.14.47-.54.45a3.47,3.47,0,0,0-.91,0,.23.23,0,0,0-.2.1l.38-.05h.36c.18,0,.35,0,.53,0a.47.47,0,0,0,.46-.31A.38.38,0,0,0,33.59,16.33Z"/><path class="cls-3" d="M38.23,25.14A.38.38,0,0,1,38,25a1.28,1.28,0,0,1-.28-1l.07-.08s0-.09.06-.15a.49.49,0,0,0-.34-.61.64.64,0,0,1-.38-.45c-.1-.35-.18-.71-.26-1.07a.11.11,0,0,0,0-.09h0a.49.49,0,0,0,0-.12,14.74,14.74,0,0,1-.3-2.66c0-1-.07-2-.13-3v-.32c0-.12,0-.25,0-.38a7.24,7.24,0,0,1,.17-2.54,1.52,1.52,0,0,0,.09-1.32,2.54,2.54,0,0,1,0-2.09.68.68,0,0,0-.07-.7,1,1,0,0,0-.31-.32c-.29-.16-.4-.51-.69-.66,0,0,0,0,0,0l-.23-.34a2.75,2.75,0,0,1-.48-.93.76.76,0,0,0-.59-.58l-.66-.18a.44.44,0,0,1-.29-.3.79.79,0,0,0-.42-.52,4.3,4.3,0,0,0-.76-.34A5.12,5.12,0,0,0,30.57,4a.42.42,0,0,0-.42.2,4,4,0,0,1,1.78.63c.07,0,.11.06.08.16a1.3,1.3,0,0,0,.34,1.29,3.57,3.57,0,0,0,.94.75.85.85,0,0,1,.47.73c0,.09,0,.14-.11.12-.4-.06-.79-.1-1.19-.17a9.87,9.87,0,0,0-1.88-.24.19.19,0,0,1-.2-.14A11.85,11.85,0,0,0,28.31,4.1,12.14,12.14,0,0,0,26.2,2.22,11.67,11.67,0,0,0,22.38.41a11.33,11.33,0,0,0-7.25.4A11.94,11.94,0,0,0,8.37,7.39a.14.14,0,0,1-.16.12,6.19,6.19,0,0,0-1.61.13c-.58.12-1.17.19-1.76.27,0,0-.11,0-.1-.07a.84.84,0,0,1,.44-.76,3.76,3.76,0,0,0,.92-.72A1.31,1.31,0,0,0,6.49,5c0-.07,0-.1,0-.13a4.84,4.84,0,0,1,1.36-.59l.46-.07A.44.44,0,0,0,8,4a5.11,5.11,0,0,0-2.35.64.81.81,0,0,0-.4.5.41.41,0,0,1-.31.31l-.67.19a.67.67,0,0,0-.52.48A4.61,4.61,0,0,1,2.39,8.08l-.14.11L2,8.39a.76.76,0,0,0-.16.9,2.64,2.64,0,0,1,0,2.08,1.17,1.17,0,0,0,0,1,4.92,4.92,0,0,1,.33,2.18C2.09,15.82,2,17.14,2,18.45a17.94,17.94,0,0,1-.6,4.26.74.74,0,0,1-.43.54A.51.51,0,0,0,.71,24a.4.4,0,0,1,.07.21,1,1,0,0,1-.55.9.35.35,0,0,0-.14.57,1.67,1.67,0,0,0,.36.39c.14.11.33.18.23.46l.16-.12a.1.1,0,0,1,.14,0,6.73,6.73,0,0,0,.73.32c.07,0,.08.06.05.12l-.12.3A.71.71,0,0,0,2,27a.12.12,0,0,1,.14,0,7,7,0,0,0,1.28.24,2.87,2.87,0,0,0,1.13-.08.39.39,0,0,0,.34-.42A.27.27,0,0,1,5,26.43a.45.45,0,0,0,.16-.57.64.64,0,0,1,0-.57,6.77,6.77,0,0,1,.65-1.1,2.32,2.32,0,0,1,.74-.69,3,3,0,0,0,1.2-1.28c.46-.87.93-1.75,1.36-2.65a2.88,2.88,0,0,1,.22-.38l.15.21a12.72,12.72,0,0,0,2,2.3l.55.48a0,0,0,0,1,0,0l-.07.06a2.4,2.4,0,0,0-.94,1.21c0,.12-.1.23-.14.34a.78.78,0,0,1-.3.39,2.06,2.06,0,0,0-.54.56l0,0a1.11,1.11,0,0,0,.05,1.49,2.58,2.58,0,0,0,.65.49,9,9,0,0,0,2.07.89.25.25,0,0,0,.12,0,.24.24,0,0,0,.16.07,21.54,21.54,0,0,0,3.48.64,24.81,24.81,0,0,0,6.83-.25,7.13,7.13,0,0,0,1-.22c.06,0,.13,0,.18,0h0l.13,0c.65-.15,1.29-.34,1.94-.5a4.1,4.1,0,0,0,1.9-1.15.94.94,0,0,0,.22-1.13,2.83,2.83,0,0,0-.71-.83.13.13,0,0,0-.06-.1,2,2,0,0,1-.43-1,.22.22,0,0,0-.08-.15,5.5,5.5,0,0,0-.84-.69c0-.05-.17-.07-.05-.17a8.84,8.84,0,0,0,1.06-1,.11.11,0,0,0,.06-.07.09.09,0,0,0,.06-.06,13,13,0,0,0,1.36-1.65c0,.09.08.15.11.22.21.42.4.85.63,1.25a.37.37,0,0,0,.09.16.16.16,0,0,0,.05.11.06.06,0,0,0,0,.06c.1.21.21.42.33.62a.13.13,0,0,0,.05.09l.2.39a2.83,2.83,0,0,0,1.18,1.24,1.88,1.88,0,0,1,.36.27,5.19,5.19,0,0,1,1.09,1.67.47.47,0,0,1,0,.4.41.41,0,0,0,.07.5.61.61,0,0,1,.21.43c0,.23.21.27.39.32a2.49,2.49,0,0,0,1,.07,6.51,6.51,0,0,0,2.85-.88,2,2,0,0,0,.58-.53A.36.36,0,0,0,38.23,25.14Zm-.57-.56c.1.25.19.49.27.75s0,.24-.14.35a6.43,6.43,0,0,1-2.25.89,1.05,1.05,0,0,0-.24.06l-.81.05h-.18l-.23,0s-.08,0-.07-.05,0,0,.06,0a9.22,9.22,0,0,0,2.55-1.22h0a2.46,2.46,0,0,0,.44-.34,1.16,1.16,0,0,0,.39-.46C37.59,24.42,37.6,24.42,37.66,24.58ZM33.76,7.21l0,0-.09-.05h0L33.36,7l.55,0h0c-.13,0-.26-.09-.39-.15a2.29,2.29,0,0,1-.9-.64s0-.11-.09-.06,0,.07,0,.11.06,0,.07.1h0l-.12-.1-.17-.15a1.32,1.32,0,0,1-.24-1c0-.25.17-.32.4-.2a4.75,4.75,0,0,1,.85.55,1.45,1.45,0,0,0,.71.3.7.7,0,0,1,.62.55,4.57,4.57,0,0,0,.57,1.07,4.61,4.61,0,0,0,.94,1l.22.21a.39.39,0,0,1,.11.45,4.18,4.18,0,0,0-.25.92.19.19,0,0,1-.16.19,2.87,2.87,0,0,1-1.27,0c-.29-.09-.35-.19-.29-.5h0c.05-.25,0-.54.4-.55l-.21,0a.37.37,0,0,1-.31-.23l-.5-1.16a.93.93,0,0,1-.1-.35h0a.07.07,0,0,0,0,0v0l0,0Zm.75,3.26a1.82,1.82,0,0,0,1.12.24l.52,0c.09,0,.1,0,.12.11s0,.13-.09.13a3.91,3.91,0,0,1-1.56-.09c-.06,0-.09,0-.08-.12A1.38,1.38,0,0,0,34.51,10.47Zm1.44.09a2.69,2.69,0,0,1-1,0l-.23-.07c-.19-.08-.21-.12-.19-.35a2.5,2.5,0,0,0,1.72.23A.34.34,0,0,1,36,10.56Zm-1.38.34a4.41,4.41,0,0,0,1.69.19l0,0a.27.27,0,0,1-.28.13c-.31,0-.62-.06-.93-.07a1.14,1.14,0,0,1-.48-.12s-.09,0-.09-.09S34.5,10.87,34.57,10.9Zm-2.78-3a4.29,4.29,0,0,1,1.29,0l.47,0a.45.45,0,0,1,.45.44.83.83,0,0,0,.28.43c.29.27.31.39.15.75-.08.19-.08.19-.28.14a1.15,1.15,0,0,1-.31-.11c-.26-.14-.31-.26-.24-.56-.22.25-.45.17-.68.07l-1.21-.48c-.22-.09-.3-.2-.28-.38S31.56,8,31.79,7.94Zm-1.18,7c-.16-.12-.27-.3-.46-.39,0,0,0,0,0-.08a3.68,3.68,0,0,0,.06-.58c0,.19-.07.39-.11.6l-.43-.3-.41-.28a.38.38,0,0,1-.13-.18c-.08-.24,0-.38.25-.32a4.91,4.91,0,0,1,1.42.59.12.12,0,0,1,.07.14c-.05.26-.09.51-.13.76C30.7,14.93,30.68,14.94,30.61,14.89Zm0,.43c-.07.22-.12.45-.19.68-.17-.11-.34-.17-.49-.28s-.08-.06-.06-.14a6.55,6.55,0,0,0,.21-.9c0-.07,0-.08.09,0a.35.35,0,0,1,.13.11.76.76,0,0,0,.2.23A.25.25,0,0,1,30.61,15.32Zm.18.8a.88.88,0,0,0,.05-.15c.05-.15.09-.3.13-.45s.05-.2.23-.08a1.65,1.65,0,0,1,.35.48s0,.05,0,.07a2.78,2.78,0,0,1-.5.21.35.35,0,0,1-.2,0S30.78,16.17,30.79,16.12Zm.36-.89a.12.12,0,0,1-.07-.16c.06-.27.11-.54.16-.81a1.26,1.26,0,0,1,.83.4,5.3,5.3,0,0,0,.52.42c0,.05.06.07,0,.13a4.05,4.05,0,0,1-.77.61s-.07,0-.09,0A1.39,1.39,0,0,0,31.15,15.23Zm1.42-.29a2.58,2.58,0,0,1-.5-.43.89.89,0,0,0-.63-.33c-.19,0-.18,0-.16-.22a12.64,12.64,0,0,0,.06-2.75c0-.19,0-.37-.06-.59A2.18,2.18,0,0,0,32,11a.68.68,0,0,1,.25.14,5,5,0,0,0,.64.42.17.17,0,0,1,.11.09,3.75,3.75,0,0,0,.54.82.15.15,0,0,1,0,.17,2.71,2.71,0,0,0-.39,1.4,1.84,1.84,0,0,1-.29.87C32.79,15,32.72,15.05,32.57,14.94Zm.54-3.42a.27.27,0,0,1,.07-.27,2.14,2.14,0,0,0,.28-.35c-.16.06-.21.17-.29.25s-.05.13-.11.08,0-.09.06-.13l.23-.28c-.1,0-.14.06-.18.11l-.23.28a.19.19,0,0,1-.28,0c-.33-.21-.33-.2-.24-.58,0-.09,0-.18,0-.28s-.06,0-.07.06l-.06.24c-.07.24-.12.27-.33.16a4.78,4.78,0,0,1-.61-.28.33.33,0,0,1-.18-.27,2.25,2.25,0,0,0-.06-.36c0-.15,0-.21.18-.17l.34.11a1.71,1.71,0,0,0,.59.11,1.19,1.19,0,0,1,.84.3,5.51,5.51,0,0,1,.87.8,2.16,2.16,0,0,0,.39.46c.05,0,0,.07,0,.1a6.15,6.15,0,0,1-.62.63s-.07,0-.1,0A1.87,1.87,0,0,1,33.11,11.52Zm-2-3.21c.09,0,.12,0,.15-.08a2.6,2.6,0,0,1,.1-.25.14.14,0,0,1,.13-.11,1.46,1.46,0,0,0-.18.43.32.32,0,0,0,0,.27,1,1,0,0,0,.3.3A3.07,3.07,0,0,0,33,9.35a1.19,1.19,0,0,1,.79.38,4.93,4.93,0,0,0,.4.39.44.44,0,0,1,.08.54.48.48,0,0,0-.09.27c-.31-.25-.6-.49-.88-.75a1.66,1.66,0,0,0-1.15-.42,2.61,2.61,0,0,1-1-.37.12.12,0,0,1,0-.07c-.09-.38-.21-.76-.34-1.16A4,4,0,0,1,31.14,8.31Zm-24-.23c.1.25.1.25.35.17l.55-.18h0v0c-.11.36-.22.72-.32,1.08a.11.11,0,0,1-.09.09A4,4,0,0,0,7,9.59a1.21,1.21,0,0,1-.61.16A1.9,1.9,0,0,0,5,10.36c-.19.2-.43.37-.65.56-.06-.21-.2-.39-.15-.61,0-.05,0-.09,0-.12l.65-.62a.71.71,0,0,1,.41-.17A3.88,3.88,0,0,0,6.67,9l0,0c.52-.32.56-.54.27-1.06C7.11,7.89,7.12,8,7.16,8.08ZM7.91,16s0,.07,0,.09a.57.57,0,0,1-.64,0l-.06,0c-.27-.14-.27-.14-.1-.4a1.62,1.62,0,0,1,.61-.49C7.76,15.47,7.83,15.73,7.91,16ZM8,13.8a8.13,8.13,0,0,1,1.16-.44c.11,0,.22-.06.29.07a.33.33,0,0,1-.07.36L9.11,14l-.88.59a2.38,2.38,0,0,0-.19.17c0-.29-.09-.55-.14-.82A.1.1,0,0,1,8,13.8Zm-.54-3.71a.34.34,0,0,1-.1.27,1.21,1.21,0,0,1-.46.31c-.13.06-.27.11-.4.18s-.22,0-.27-.13a1.68,1.68,0,0,1-.06-.24.69.69,0,0,1,0-.13H6c0,.16.06.32.1.48a.2.2,0,0,1-.1.25l-.13.09c-.18.14-.25.13-.41-.06a.78.78,0,0,0-.32-.3,3.76,3.76,0,0,0,.25.31s.06.07,0,.1-.06,0-.08-.05-.15-.23-.31-.26l.25.3a.31.31,0,0,1,0,.4,2.29,2.29,0,0,1-.43.59c-.07.06-.12.09-.2,0s-.37-.36-.54-.55-.08-.12,0-.19a4.46,4.46,0,0,0,.49-.57,5.4,5.4,0,0,1,.93-.79A.74.74,0,0,1,6.12,10,2.19,2.19,0,0,0,7,9.79C7.32,9.67,7.39,9.73,7.41,10.09Zm-.11-.5c.23,0,.33.22.26.51A.53.53,0,0,0,7.3,9.59ZM5,12.42a3.85,3.85,0,0,0,.52-.81s.07-.06.11-.09a3.66,3.66,0,0,0,.66-.45,1.09,1.09,0,0,1,.31-.14,1.82,1.82,0,0,0,.78-.43,1.66,1.66,0,0,0,.16-.21A16,16,0,0,0,7.38,12a12,12,0,0,0,.09,1.9.16.16,0,0,1-.1.18.85.85,0,0,1-.34.11.87.87,0,0,0-.58.32,3.73,3.73,0,0,1-.52.45c-.15.1-.21.1-.29-.06a1.93,1.93,0,0,1-.3-.9A2.64,2.64,0,0,0,5,12.62.15.15,0,0,1,5,12.42Zm.95,2.65.65-.56a1,1,0,0,1,.54-.23,1.4,1.4,0,0,0,.37-.14l.15.81a.11.11,0,0,1-.06.14l-.27.15a1.39,1.39,0,0,0-.55.55s0,.06-.09,0a4.42,4.42,0,0,1-.76-.61C5.85,15.15,5.86,15.12,5.93,15.07ZM4.88,8a6.44,6.44,0,0,1,1.86-.07.38.38,0,0,1,.33.36.31.31,0,0,1-.23.36l-1.43.57a.48.48,0,0,1-.52-.14c.09.3.05.39-.18.54a1.85,1.85,0,0,1-.5.17s-.08,0-.09,0S4,9.52,4,9.4a.53.53,0,0,1,.25-.54.83.83,0,0,0,.29-.48A.41.41,0,0,1,4.88,8ZM2.73,11.08a3.23,3.23,0,0,0,1.16-.17s.07-.07.1,0A.09.09,0,0,1,4,11a.87.87,0,0,1-.34.12l-1.06.1a.31.31,0,0,1-.35-.17Zm-.5-.26c0-.11,0-.15.16-.14s.47,0,.7,0A1.68,1.68,0,0,0,4,10.48c0,.11,0,.19,0,.28s-.07.07-.11.08a2.54,2.54,0,0,1-.78.12l-.7,0C2.31,10.93,2.23,10.93,2.23,10.82Zm1.59-.36a2.23,2.23,0,0,1-1.2.1c-.15,0-.28,0-.34-.22A2.47,2.47,0,0,0,4,10.13C4,10.34,4,10.38,3.82,10.46ZM2,9.13a.41.41,0,0,1,.12-.53l.47-.43A5,5,0,0,0,3.74,6.55l.09-.25a.64.64,0,0,1,.54-.51,1.78,1.78,0,0,0,.94-.44,4.52,4.52,0,0,1,.76-.46A.2.2,0,0,1,6.38,5a1,1,0,0,1,0,.45A1.48,1.48,0,0,1,6,6.31s-.07.09-.15.06a1.34,1.34,0,0,0,.11-.14s.07-.06,0-.1-.06,0-.08,0a2.33,2.33,0,0,1-1.13.75C4.64,7,4.63,7,4.6,7l.51-.08V7l-.35.22c-.09.05-.09-.1-.19-.09.19.23.06.43,0,.63l-.36.82a2.5,2.5,0,0,0-.09.25.5.5,0,0,1-.56.31l0,0c.25,0,.33.18.36.4a1.55,1.55,0,0,0,0,.21.33.33,0,0,1-.21.4,2.22,2.22,0,0,1-1.14.09c-.35,0-.35,0-.42-.4A3.4,3.4,0,0,0,2,9.13Zm-1.27,17a2.41,2.41,0,0,1-.53-.47.24.24,0,0,1,0-.29.43.43,0,0,1,.25-.21c.05,0,.05.05,0,.08-.1.25,0,.4.22.52s.17.09.18.15S.77,26.07.73,26.15Zm.31.17a.34.34,0,0,1,.41-.07.46.46,0,0,1,.34.4C1.53,26.55,1.29,26.44,1,26.32Zm.77-.92c-.18,0-.18.05-.15.24s0,.09-.07.08a.78.78,0,0,0-.58.09s-.07,0-.09,0c-.45-.26-.43-.24-.27-.69.06-.19.14-.38.21-.57s.09-.12.14,0a2.91,2.91,0,0,0,.91.87Zm.15.5c.06-.08.2,0,.21-.12a.79.79,0,0,0,0-.25.14.14,0,0,1,.11,0,15.24,15.24,0,0,0,1.81.9,2.34,2.34,0,0,0,.38.09s.08,0,.08.05,0,0-.08,0a3.24,3.24,0,0,1-.88,0A6.49,6.49,0,0,1,2.3,26.4c-.07,0-.11,0-.12-.12A.67.67,0,0,0,2,25.9Zm2.66,1a2.83,2.83,0,0,1-.7.12,7.19,7.19,0,0,1-1.66-.24c-.18-.06,0-.16,0-.24s.09,0,.12,0a7.17,7.17,0,0,0,2.11.24.2.2,0,0,0,.21-.15s0-.09.08-.08a.12.12,0,0,1,.09.1A.24.24,0,0,1,4.62,26.93Zm4.91-8.4a.42.42,0,0,0-.08.12,3.65,3.65,0,0,1-.44.91c-.28.5-.55,1-.81,1.52l-.08.13,0,0,.67-1.4,0,0-.09.16a15.67,15.67,0,0,0-.82,1.64,1.91,1.91,0,0,1-1.09,1.15.42.42,0,0,0,.33,0l.31-.19s0,0,0,0,0,0,0,0,0,0,0,0,0,0,0,0a.26.26,0,0,1-.07.14,2.44,2.44,0,0,1-.65.59l-.3.19a2.31,2.31,0,0,0-.8.87A5.27,5.27,0,0,0,4.72,26a1.24,1.24,0,0,0,0,.16s0,.09-.07.07-.06,0,0-.1c.07-.23.15-.46.22-.7,0-.06.07-.12,0-.2a2.28,2.28,0,0,0-.35.87c0,.06,0,.09-.09.07l-.63-.24a.1.1,0,0,1-.07-.11,1.61,1.61,0,0,0-.38-1c-.26-.34-.58-.64-.86-1a.45.45,0,0,1,.15-.73A.69.69,0,0,1,3.1,23a3.94,3.94,0,0,1,.49.14,2.84,2.84,0,0,0,.47.15A.84.84,0,0,0,4.88,23a1.92,1.92,0,0,0,.38-.77,1.83,1.83,0,0,1,.24-.58.45.45,0,0,0,0-.46,4.16,4.16,0,0,0-.24-.47c-.09-.14-.23-.14-.3,0a2.15,2.15,0,0,0-.2.71.34.34,0,0,0,.14.3.31.31,0,0,1,.1.32,1.23,1.23,0,0,1-.32.68.69.69,0,0,1-.78.13,2.61,2.61,0,0,0-.86-.27,1.2,1.2,0,0,0-.74.16.87.87,0,0,0-.4.94,1.56,1.56,0,0,0,.47.81l.44.47a1.3,1.3,0,0,1,.34.67v0h0a5.52,5.52,0,0,1-2-1.45.14.14,0,0,1,0-.16c.09-.34.18-.67.28-1a.43.43,0,0,0,0-.11c0-.13.06-.17.17-.12a1.24,1.24,0,0,1,.07-.71c.12-.48.25-1,.33-1.46a6.5,6.5,0,0,0,.06-1c.07-1.58.14-3.17.2-4.75a8.79,8.79,0,0,0,0-1.7c-.07-.39-.21-.77-.32-1.16,0-.11,0-.17.1-.17a.26.26,0,0,1,0-.32.21.21,0,0,1,.2-.14l1.69-.16c.14,0,.15,0,.12.15a.3.3,0,0,1-.15.21l-.24.11s.06,0,.09,0a1,1,0,0,1,.65.29,2.55,2.55,0,0,1,.87,2.12,1.48,1.48,0,0,0,.4,1.08,3.76,3.76,0,0,0,1.37,1l.25.12v0l-1.12.22a.73.73,0,0,0,.55.08,8.63,8.63,0,0,0,1.58-.53,3.7,3.7,0,0,0,.66-.42c.19-.15.37-.3.57-.43a.82.82,0,0,0,.38-.54,2.74,2.74,0,0,1,.42-.9,7.25,7.25,0,0,1,1.22-1.4c0,.21-.05.38-.08.55a.88.88,0,0,0,.15.59.55.55,0,0,0,.82.13.92.92,0,0,0,.34-.5,3.07,3.07,0,0,0,.11-.36.17.17,0,0,1,.06.17,4.27,4.27,0,0,1-.22.87A2.85,2.85,0,0,0,12.46,15a.89.89,0,0,1-.37.75l-.43.35a1,1,0,0,0-.29.41.76.76,0,0,1-.23.3C10.58,17.35,10.06,17.94,9.53,18.53ZM12,13a.34.34,0,0,1,.29.09c.11.1.15.09.21,0a.93.93,0,0,1,0-.13c.17.22.18.3,0,.43s0-.06,0-.08l0,0c-.13.12-.13.12-.23,0s-.2-.19-.38-.08-.14,0-.17-.07,0-.13-.07,0,0,0,0,0-.06-.13,0-.2a.63.63,0,0,1,.22-.16.34.34,0,0,1,0,.11C11.76,13,11.77,13,12,13Zm.45-2.13h0c0,.09,0,.22-.17.21,0,0,0,0,0-.05S12.3,10.86,12.41,10.88Zm.1.31a1,1,0,0,0-.31,1.27.76.76,0,0,1-.1-.83C12.19,11.35,12.34,11.19,12.51,11.19Zm.39-.5a.53.53,0,0,0-.43-.08l.4-.78C12.87,10.14,12.92,10.41,12.9,10.69Zm-.08.58a.14.14,0,0,1,0-.19s.05,0,.06,0S12.88,11.22,12.82,11.27Zm-.51,1a3.07,3.07,0,0,0,.22-.88A.76.76,0,0,1,12.31,12.3Zm.24-1.37c0-.06,0-.12.09-.13s.06,0,0,.11,0,.14-.1.14S12.54,11,12.55,10.93Zm-.28,1.32a.77.77,0,0,1,.21-.88A4.34,4.34,0,0,0,12.27,12.25Zm.33-1a.81.81,0,0,1,.09.86c-.1.28-.24.41-.4.4A1,1,0,0,0,12.6,11.23Zm-.85,13.36a.3.3,0,0,1,.31-.3.3.3,0,0,1,0,.6A.31.31,0,0,1,11.75,24.59ZM13.64,26a1.26,1.26,0,0,1-1.57,0,1.62,1.62,0,0,0,1-2.06,1.13,1.13,0,0,1,1,.86A1.09,1.09,0,0,1,13.64,26Zm2.72,1a1.15,1.15,0,0,1-1.06.13.12.12,0,0,1-.09-.1A3.2,3.2,0,0,1,15.46,25c0-.09.09-.12.19-.11a1.34,1.34,0,0,1,1.27,1l0,.09A1.27,1.27,0,0,1,16.36,27.05Zm4.31-.53a1.09,1.09,0,0,1-.35.76,1.36,1.36,0,0,1-2-.18A1,1,0,0,1,18.22,26a1.36,1.36,0,0,1,1.18-.68A1.27,1.27,0,0,1,20.67,26.52Zm2.72.64-.26,0A1.37,1.37,0,0,1,22,26.54a1.2,1.2,0,0,1,.89-1.74.36.36,0,0,1,.41.26c.18.49.34,1,.5,1.48A.56.56,0,0,1,23.39,27.16Zm2.75-.84c0,.05-.05.08-.09.12s.08-.07.09-.12a.09.09,0,0,0,0-.08h0A.16.16,0,0,1,26.14,26.32Zm-1.34-.67a1.06,1.06,0,0,1,.26-1.74,1.13,1.13,0,0,1,.32-.13,1.56,1.56,0,0,0,1.19,1.87A1.23,1.23,0,0,1,24.8,25.65Zm2.08-1.15a.3.3,0,1,1-.59,0,.31.31,0,0,1,.29-.3A.31.31,0,0,1,26.88,24.5Zm2-5.44a12.53,12.53,0,0,1-1,1.21l-.09.11a.22.22,0,0,0-.09.1l-.11.11a.11.11,0,0,0-.06.07l-1,.9-.08.07a.65.65,0,0,0-.18.15s-.06,0-.08.08-.12.06-.16.1A5.86,5.86,0,0,1,23,23.26a36,36,0,0,1-3.74.32h-.8a.1.1,0,0,0-.09,0,1.13,1.13,0,0,0-.32-.06c-.83-.08-1.67-.16-2.5-.31a7.84,7.84,0,0,1-3.65-1.71l-.07-.05a10.25,10.25,0,0,1-1.67-1.87c-.17-.24-.32-.49-.48-.73a.14.14,0,0,1,0-.19,8.29,8.29,0,0,1,.93-1.11c.59-.59,1.12-1.23,1.7-1.84a.93.93,0,0,0,.25-.55c.07-.59.21-1.16.33-1.74a1.05,1.05,0,0,0,0-.76.34.34,0,0,1,0-.2c.06-.66.13-1.32.18-2a2.2,2.2,0,0,0-.19-1.13,1.11,1.11,0,0,0-.21.32c-.23.53-.47,1.06-.68,1.61-.1.24-.21.48-.32.72a1.62,1.62,0,0,1-.37.45A6.15,6.15,0,0,0,10,14a2.68,2.68,0,0,0-.3.72.86.86,0,0,1-.27.38l-.28-.67a1.34,1.34,0,0,0,0,.63.35.35,0,0,1-.19.44l-.53.35c-.06,0-.08,0-.1,0A5.67,5.67,0,0,1,8.1,15a.34.34,0,0,1,.2-.32c.39-.23.74-.5,1.1-.76a3.36,3.36,0,0,0,.34-.41l.36-.41a.12.12,0,0,0,0-.15.1.1,0,0,0-.14,0c-.57.32-1.21.45-1.8.71l-.3.13a6.4,6.4,0,0,1-.08-.86,12.2,12.2,0,0,1,.23-3,.3.3,0,0,1,.18-.24l.85-.43a.1.1,0,0,0,.06,0,5.58,5.58,0,0,0-.91,0,4.42,4.42,0,0,1,.14-.52c0-.1.07-.19.1-.29.09-.32.19-.64.6-.69l0,0c-.26-.06-.26-.06-.15-.31A11.58,11.58,0,0,1,16.57.8,11.23,11.23,0,0,1,27.66,4a11.77,11.77,0,0,1,2.26,3.35c.07.16.07.16-.11.19l-.36.08.62.3a.23.23,0,0,1,.14.15,10,10,0,0,1,.34,1.1,7.8,7.8,0,0,0-1.18,0l.59.29a2.11,2.11,0,0,1,.71.51s.07.07.07.12a13.79,13.79,0,0,1,.13,3.74l0,.06a6,6,0,0,0-1.46-.61,6.32,6.32,0,0,1-.81-.34c-.06,0-.13-.09-.19,0s0,.14.06.2c.19.25.43.47.61.73a1.09,1.09,0,0,0,.26.21l.65.46a.12.12,0,0,1,.06.14,8.34,8.34,0,0,1-.26.85c0,.07,0,.09-.11,0S29.23,15.2,29,15a1.06,1.06,0,0,1-.27-.51,3.23,3.23,0,0,0-.64-1.11,7.35,7.35,0,0,0-.92-.93,1.51,1.51,0,0,1-.43-.57c-.3-.71-.61-1.42-.91-2.14a2.12,2.12,0,0,0-.24-.4,2.08,2.08,0,0,0-.21,1.06c.05.67.12,1.33.19,2a.78.78,0,0,1-.05.37,1.06,1.06,0,0,0,0,.61,17.82,17.82,0,0,1,.34,1.77,1.52,1.52,0,0,0,.54.86l.11.11.4.44a.13.13,0,0,0,.06.07c.36.44.77.82,1.15,1.24.1.1.15.19,0,.31a.13.13,0,0,0-.07.09l-.48.67a.13.13,0,0,0-.06.07,8.39,8.39,0,0,1-1.14,1.24s0,0,0,0l-.29.23-.06,0h0c-.2.15-.42.26-.61.43a.61.61,0,0,0-.17.07l-1,.53a5.87,5.87,0,0,1-2.16.68c-.73.08-1.46.09-2.19.11h-.47v.05a7.27,7.27,0,0,0,3,0,8.49,8.49,0,0,0,3.21-1.31A9.29,9.29,0,0,0,27.1,20.1l.16-.16a.38.38,0,0,0,.11-.11,9.86,9.86,0,0,0,1.2-1.44,6.42,6.42,0,0,1,.38.53C29,19,28.94,19,28.91,19.06ZM26,13.36c-.17-.12-.17-.15,0-.44L26,13c.07.21.09.22.25.09a.32.32,0,0,1,.27-.07c.18,0,.2,0,.18-.18a.5.5,0,0,0,0-.12.43.43,0,0,1,.21.14c.09.07,0,.17,0,.23s0,0-.07-.05l0,.12c0,.07-.07.08-.14,0-.23-.12-.26-.12-.41.09s-.1.13-.23,0C26,13.29,26,13.35,26,13.36Zm-.4-2.65.05-.87.39.77A.57.57,0,0,0,25.59,10.71Zm.09.57c-.05,0-.11-.09-.08-.18s0,0,.06,0S25.72,11.21,25.68,11.28Zm.57.06a1,1,0,0,1,.21.69.47.47,0,0,0,.19.4s0,0-.06,0,0,.08-.06.05-.05-.07,0-.1,0-.11,0-.13-.06.05-.08.08-.05.11-.11.13,0-.06,0-.08a.34.34,0,0,0,.06-.12c0-.06.05-.14,0-.16s-.05.08-.11.13a4.4,4.4,0,0,0-.21-.89.75.75,0,0,1,.27.56s0,.09,0,.14,0,.07.06.06,0,0,0-.07a.86.86,0,0,0-.4-.8s0,0,0,0A.27.27,0,0,1,26.25,11.34Zm-.11-.43s0,0,.05,0,0,.12,0,.19S26.09,11,26.14,10.91Zm-.18.53c0,.15.1.27.05.4a.13.13,0,0,0,0,.1c.11.09.09.23.14.36C26,12.22,25.84,11.73,26,11.44Zm-.06-.38c-.08,0-.08-.1-.09-.16s0-.09.05-.09.09.09.1.16S26,11.07,25.9,11.06Zm-.09.27a.86.86,0,0,1,.07-.1l0,0a.78.78,0,0,0-.11.61c.05.25.1.5.38.59,0,0,0,0,0,.05s0,0,0,0a.27.27,0,0,1-.14-.07A1.07,1.07,0,0,1,25.81,11.33Zm7.16,13,0,0a.32.32,0,0,0-.08-.12,2.11,2.11,0,0,0-.76-.78,2.92,2.92,0,0,1-.83-.65.91.91,0,0,1-.16-.24s0,0,0,0h0l.18.13a.54.54,0,0,0,.47.13l-.43-.24a2.44,2.44,0,0,1-.63-.83.41.41,0,0,0-.07-.15,4.72,4.72,0,0,0-.27-.61c-.2-.43-.45-.84-.68-1.26q.29.69.63,1.35c0,.08.08.13.06.22-.28-.45-.5-.95-.78-1.41a.13.13,0,0,0-.05-.09l-.3-.55a1,1,0,0,1-.13-.27,1.34,1.34,0,0,0-.34-.56c-.47-.53-.95-1-1.45-1.55a.94.94,0,0,1-.25-.39,1,1,0,0,0-.37-.4l-.39-.34A.88.88,0,0,1,26,15a2.6,2.6,0,0,0-.19-1,4,4,0,0,1-.23-.91.22.22,0,0,1,0-.19,1,1,0,0,1,.1.27,1.18,1.18,0,0,0,.19.41.62.62,0,0,0,.68.29.7.7,0,0,0,.46-.56,2,2,0,0,0,0-.64,1,1,0,0,0,0-.16,2.22,2.22,0,0,1,.45.41,7.11,7.11,0,0,1,1,1.32,1.54,1.54,0,0,1,.18.48,1,1,0,0,0,.47.66,1.44,1.44,0,0,1,.25.18,4.65,4.65,0,0,0,1.95,1,4.61,4.61,0,0,0,.64.16.64.64,0,0,0,.44-.09l-1.15-.23A6.3,6.3,0,0,0,32,16,3.06,3.06,0,0,0,33,15a1.49,1.49,0,0,0,.26-.94A2.57,2.57,0,0,1,34.21,12a1,1,0,0,1,.69-.25l-.2-.09c-.06,0-.13-.07-.16-.14a.32.32,0,0,1,0-.23s.12,0,.18,0l1.4.14h.22a.22.22,0,0,1,.22.14c0,.11.07.22,0,.32.14,0,.13.09.09.2s-.11.38-.17.58a3.73,3.73,0,0,0-.19.95c0,.72,0,1.45,0,2.18v.12c0,.21,0,.41,0,.62v.06c0,.67,0,1.35.07,2,0,.38,0,.77,0,1.15a7.14,7.14,0,0,0,.24,1.72c.09.32.14.65.24,1a.5.5,0,0,1,0,.34l0,0a.1.1,0,0,0,.09,0,.08.08,0,0,1,.09.07c.07.41.21.79.31,1.18a.2.2,0,0,1,0,.2,5,5,0,0,1-1.43,1.17l-.1.06a.05.05,0,0,0,0,0l-.15.08h0l-.06,0a14.27,14.27,0,0,1-1.33.55c-.11,0-.17,0-.16-.1A.32.32,0,0,0,34,26a2.7,2.7,0,0,0-.27-.66l0,0,.22.65c0,.06,0,.12,0,.18s0,.08,0,.09-.06,0-.07-.06A5,5,0,0,0,33,24.32Zm5.25,1.46a3.43,3.43,0,0,1-1.3.79,6.47,6.47,0,0,1-2,.48,2.78,2.78,0,0,1-1-.12.3.3,0,0,1-.18-.15.26.26,0,0,1,0-.15.1.1,0,0,1,.08-.07s.06,0,.08.06a.41.41,0,0,0,.44.17h.15a4,4,0,0,0,.69,0h.17l.19,0h0a5.33,5.33,0,0,0,1-.28,5.4,5.4,0,0,0,1.32-.65.36.36,0,0,0,.18-.48s0-.08,0-.1.07,0,.1,0C38.43,25.4,38.43,25.54,38.22,25.78Z"/><path class="cls-3" d="M32.3,20.18a1,1,0,0,0-.38,0c-.1,0-.14-.06-.13-.14a.23.23,0,0,1,.25-.19.41.41,0,0,0,.42-.17c0-.06.07-.12-.05-.13a.61.61,0,0,1-.26-.08.25.25,0,0,1,0-.42c0-.05.13-.08.16-.16a.42.42,0,0,0-.6.21c-.05.15-.14.17-.27.18s-.15,0-.18-.11.06-.11.11-.14.17-.07.25-.12a.11.11,0,0,0,.05-.14.07.07,0,0,0-.11,0,.18.18,0,0,1-.19,0,4.93,4.93,0,0,1-.54-.34s-.06-.06-.1,0,0,.07,0,.1a3,3,0,0,1,.05.67c0,.09-.07.21,0,.25s.18,0,.26-.1.08,0,.12,0,0,.19,0,.29-.1,0-.16,0h-.17a.36.36,0,0,0-.3.31c0,.08,0,.13.11.1a.2.2,0,0,1,.27.11.39.39,0,0,1-.1.36.35.35,0,0,0,.55-.18c0-.16.13-.16.25-.14s.18.09.09.2a.76.76,0,0,0-.13.44.14.14,0,0,0,.13.16c.09,0,.09-.08.09-.14a.7.7,0,0,1,.09-.37l.15.19s.07.07.12,0,.06-.08,0-.14a2,2,0,0,0-.11-.2c.21-.09.36.1.56.07A.41.41,0,0,0,32.3,20.18Zm-1.46-1.07V18.8C31,19,31,19,30.84,19.11Zm.32,1a.3.3,0,0,1-.29.29.31.31,0,0,0,.11-.37c-.07-.17-.22-.19-.39-.19a.25.25,0,0,1,.33-.12A.39.39,0,0,1,31.16,20.13Zm-.1-1.3-.15-.26,0,0,.38.25-.1.07C31.14,18.93,31.09,18.92,31.06,18.83ZM32,19c-.16.33.1.45.29.6a.26.26,0,0,1-.4-.09A.36.36,0,0,1,32,19Zm-.7.57a4.44,4.44,0,0,1,.24.39C31.25,20,31.15,19.81,31.26,19.58Zm.42.31-.29-.45c.16,0,.31,0,.39.18S31.77,19.81,31.68,19.89Z"/><path class="cls-3" d="M28.54,17.59a6.27,6.27,0,0,1-.66-.6,1.49,1.49,0,0,1-.15-.2l0,0a.43.43,0,0,0,.16.32l.52.43a2,2,0,0,1,.55.63.2.2,0,0,0,.12.12.49.49,0,0,0-.07-.25A2.26,2.26,0,0,0,28.54,17.59Z"/><path class="cls-3" d="M34.16,24c0,.05,0,.11.1.09s.08-.07.07-.13a.78.78,0,0,1,0-.14.39.39,0,0,1,.06-.26,1.12,1.12,0,0,1,.49-.45c.08,0,.11,0,.15.06a.67.67,0,0,0,.69.35.56.56,0,0,0,.43-.26c0-.05.06-.1,0-.15s-.09,0-.13,0l-.27.14a.59.59,0,0,1-.63-.18c-.16-.13-.06-.27,0-.41a.69.69,0,0,0-.58-.88.43.43,0,0,0-.25,0s-.08.07-.07.12.05.05.08.07.1,0,.16,0c.33-.05.47.08.48.42v.17s0,.09,0,.13,0,.21-.18.25a1,1,0,0,0-.39.25A.73.73,0,0,0,34.16,24Z"/><path class="cls-3" d="M34.5,23a.29.29,0,0,0,.26-.41c0-.07-.08-.17-.19-.09s0,0,0,0-.19,0-.26.06a.33.33,0,0,0,0,.32A.26.26,0,0,0,34.5,23Zm.06-.48a.23.23,0,0,1,.1.15c0,.07,0,.17-.14.18s-.1-.06-.11-.12S34.54,22.48,34.56,22.49Z"/><path class="cls-3" d="M4.86,25.22h0l0,0S4.86,25.23,4.86,25.22Z"/><path class="cls-3" d="M3.46,8.58s.12.06.16,0,0-.09-.08-.12a.2.2,0,0,1-.06-.31A.39.39,0,0,1,3.63,8c.08,0,.08.1.16.08s0-.07,0-.11,0-.07.06-.06S3.9,8.06,4,8s0-.1,0-.15L4,7.81a1.3,1.3,0,0,0,.15-.18.28.28,0,0,0-.13-.44c-.06,0-.15-.06-.18,0s.06.08.11.1.12,0,.11.12-.1.18-.17.25,0-.08-.11-.07,0,.12-.05.15,0-.08-.12-.1c0,.18-.08.24-.18.32a.43.43,0,0,0-.09.1A.35.35,0,0,0,3.46,8.58Z"/><path class="cls-3" d="M1.66,22.81h0Z"/><path class="cls-3" d="M10.73,16.88c-.23.21-.43.45-.68.64a2.27,2.27,0,0,0-.52.55.26.26,0,0,0,0,.24s0,0,0,0l.07-.08a1.7,1.7,0,0,1,.55-.64l.49-.41a.41.41,0,0,0,.18-.34C10.76,16.82,10.75,16.86,10.73,16.88Z"/><polygon class="cls-3" points="1.64 22.82 1.64 22.81 1.64 22.82 1.64 22.82 1.64 22.82"/><polygon class="cls-3" points="1.64 22.82 1.64 22.81 1.64 22.81 1.64 22.82 1.64 22.82"/><path class="cls-3" d="M34.48,7.83s.1.08.05.16a0,0,0,0,0,0,0s0,0,0,0,0-.12.11-.08,0,.11,0,.16l0,0c.06,0,.06-.14.15-.09a.36.36,0,0,1,.19.23c0,.11-.06.15-.13.19s-.09.06-.06.12.08,0,.13,0a.34.34,0,0,0,.1-.53c-.09-.13-.29-.18-.26-.39-.07,0-.06.11-.11.09s0-.09,0-.14-.06.11-.11.07a.44.44,0,0,1-.18-.24c0-.09.07-.11.14-.14s.1,0,.08-.1-.08,0-.12,0a.28.28,0,0,0-.21.42A1.41,1.41,0,0,0,34.48,7.83Z"/><polygon class="cls-3" points="4.59 7.02 4.6 7.02 4.6 7.02 4.59 7.02 4.59 7.02"/><path class="cls-3" d="M4.49,7s.07.13.11,0S4.52,7,4.49,7Z"/><polygon class="cls-3" points="4.6 7.02 4.6 7.02 4.6 7.01 4.59 7.02 4.6 7.02"/><path class="cls-3" d="M5.46,18.46c-.35.24-.53.19-.86-.05a.58.58,0,0,1-.23-.65,3,3,0,0,1,.24-.55,1,1,0,0,0-.83,1.19,1.1,1.1,0,0,0,1.2.94,1,1,0,0,0,.95-1.2Z"/><path class="cls-3" d="M6.4,16.93a5.79,5.79,0,0,0-1,0c-.28,0-.39-.09-.42-.37a.57.57,0,0,0,0-.22c-.08.1-.08.1-.08.18a.46.46,0,0,0,.48.51,5.15,5.15,0,0,1,1.24,0A.18.18,0,0,0,6.4,16.93Z"/><path class="cls-3" d="M4,14a.17.17,0,0,1,.21-.11,1.2,1.2,0,0,1,.52.15s.06.05.08,0,.11-.2.06-.29-.16,0-.25,0l-.17,0a.37.37,0,0,1-.18,0c-.07,0-.11,0,0-.11l.25-.24c.14-.14.14-.15,0-.27l0,0S4.35,13,4.31,13a.13.13,0,0,0-.07.14.6.6,0,0,1-.19.46.22.22,0,0,1-.27.09l-.34-.12c-.21-.09-.21-.09-.23.13a.22.22,0,0,1,0,.08c0,.07,0,.11.09.1l.45,0s.1,0,.12,0,0,.07-.06.1l-.41.44a1.27,1.27,0,0,1,.23.12c.08.07.12,0,.15-.06A4,4,0,0,1,4,14Z"/><path class="cls-3" d="M8.32,18.14a1.82,1.82,0,0,1-.2-.36A1.71,1.71,0,0,0,8,17.49a1.5,1.5,0,0,0,.36.82.48.48,0,0,0,.49.17c.06,0,.1,0,.1-.12A.51.51,0,0,1,8.32,18.14Z"/><path class="cls-3" d="M7.37,22.5v0h0Z"/><polygon class="cls-3" points="4.84 25.23 4.84 25.23 4.84 25.23 4.84 25.24 4.84 25.24 4.84 25.23"/><polygon class="cls-3" points="4.84 25.23 4.84 25.23 4.84 25.24 4.84 25.23"/><path class="cls-3" d="M2.41,15.87h0a1.36,1.36,0,0,1,0,.2c0,.33,0,.66,0,1a29.13,29.13,0,0,1-.17,3.1c0,.53-.09,1.05-.12,1.58,0,0,0,.09,0,.1s.05-.06.05-.1c0-.22,0-.43.07-.69l.06.22a1.24,1.24,0,0,0,.08-.41c0-.3,0-.61,0-.91s0-.52,0-.79a18.78,18.78,0,0,0,.06-2.6A3.18,3.18,0,0,0,2.41,15.87Z"/><path class="cls-4" d="M16,18.49h0v0Z"/><path class="cls-5" d="M22.11,12.18l-.57-.67a2.72,2.72,0,0,0-4.23,0l-.57.67a.32.32,0,0,0,0,.39l.57.67a2.72,2.72,0,0,0,4.23,0l.57-.67A.32.32,0,0,0,22.11,12.18Zm-2.69,1.13a.87.87,0,0,1-.78-.93.8.8,0,1,1,1.57,0,.87.87,0,0,1-.79.93Zm-2.19-.93.4-.47a2.46,2.46,0,0,1,1.08-.75,1.66,1.66,0,0,0-.12,2.3.74.74,0,0,0,.12.13,2.55,2.55,0,0,1-1.08-.75Zm4,.46a2.46,2.46,0,0,1-1.08.75,1.65,1.65,0,0,0,.12-2.3.49.49,0,0,0-.12-.13,2.55,2.55,0,0,1,1.08.75l.4.47Z"/><path class="cls-3" d="M35.31,19.55l.26.11a.33.33,0,0,1,.17.36c0,.16-.08.31-.26.35l-.35.07c.24.36.64.33,1-.07a2.93,2.93,0,0,0,.08.93l0-.18h0c0,.22,0,.43.07.65,0,0,0,.09,0,.09s0-.06,0-.09,0-.17,0-.26c-.11-1.4-.29-2.78-.29-4.18v-.56c0-.19,0-.37,0-.55s0-.36,0-.58a14.68,14.68,0,0,0,0,4.08C35.82,19.41,35.56,19.36,35.31,19.55Z"/><path class="cls-3" d="M35.19,22.73a.3.3,0,0,0,.3.31.28.28,0,0,0,.28-.29.29.29,0,0,0-.28-.31A.28.28,0,0,0,35.19,22.73Zm.44,0c0,.07,0,.15-.13.15s-.14,0-.14-.13,0-.16.13-.15S35.63,22.64,35.63,22.73Z"/><path class="cls-3" d="M29.63,13c.06-.2.12-.39.17-.58a.16.16,0,0,1,.14-.13l.7-.17c-.24-.08-.46-.16-.68-.22a.24.24,0,0,1-.18-.18c-.06-.22-.13-.43-.21-.68a2.17,2.17,0,0,0-.11.44A.5.5,0,0,1,29,12a.68.68,0,0,0-.28.12C29.21,12.15,29.43,12.32,29.63,13Z"/><path class="cls-3" d="M10,11c-.06-.22-.13-.43-.21-.68-.07.22-.13.4-.18.59a.29.29,0,0,1-.25.26c-.19,0-.38.11-.6.17.24.08.45.15.66.2a.2.2,0,0,1,.17.18c.06.21.13.41.21.66.07-.25.14-.46.19-.67a.17.17,0,0,1,.13-.14l.69-.23-.68-.21A.17.17,0,0,1,10,11Z"/><path class="cls-3" d="M13,18.86c-.05.18-.1.32-.13.46a.18.18,0,0,1-.15.15l-.53.15a2.66,2.66,0,0,0,.45.13.29.29,0,0,1,.25.26c0,.13.09.25.13.4a1.46,1.46,0,0,0,.12-.39c0-.13.08-.23.23-.26a1,1,0,0,0,.36-.12C13.25,19.59,13.07,19.28,13,18.86Z"/><path class="cls-3" d="M17,22.41l-2.34-.63C15.09,22.34,16.58,22.77,17,22.41Z"/><path class="cls-3" d="M34.88,23.33a.3.3,0,0,0-.31.29.32.32,0,0,0,.31.31.28.28,0,0,0,.28-.3A.27.27,0,0,0,34.88,23.33Zm0,.41a.13.13,0,0,1-.13-.13.14.14,0,0,1,.16-.14c.08,0,.12.06.12.14S35,23.73,34.89,23.74Z"/><path class="cls-3" d="M30.36,17.84c-.16.33-.33.63-.77.53,0,.11.08.11.14.12a.45.45,0,0,0,.4-.12,1.22,1.22,0,0,0,.38-.85Z"/><path class="cls-3" d="M34.61,13.93l.22.07s.09.05.07.1-.07,0-.1,0-.11-.06-.15,0a.14.14,0,0,0,0,.18.23.23,0,0,0,.34,0,.23.23,0,0,0-.05-.33,1,1,0,0,0-.18-.09.62.62,0,0,1-.32-.21c0-.07-.09-.14-.06-.2s.11,0,.17,0h.08a.18.18,0,0,1,.19.16.26.26,0,0,0,.35.15s.06,0,0-.08,0,0-.08,0a.14.14,0,0,1-.18-.07.18.18,0,0,1,0-.2.13.13,0,0,1,.14,0,.18.18,0,0,1,.14.18s0,.09,0,.1a.11.11,0,0,0,.1-.09.19.19,0,0,0,0-.13.29.29,0,0,0-.49-.14s-.09.09-.16.06l-.36-.1A.54.54,0,0,1,35,13a.61.61,0,0,0,.3,0,.26.26,0,0,0,.19-.21.2.2,0,0,0-.13-.23.26.26,0,0,0-.31,0s-.08.08,0,.14.09,0,.12,0,.1-.06.14,0,0,.1,0,.13a.15.15,0,0,1-.13,0l-.3-.05a.24.24,0,0,0-.23,0c-.17.17-.37.32-.29.63A.58.58,0,0,0,34.61,13.93Z"/><path class="cls-3" d="M33.59,16.33c-.05.05,0,.09,0,.14-.05.39-.14.47-.54.45a3.47,3.47,0,0,0-.91,0,.23.23,0,0,0-.2.1l.38-.05h.36c.18,0,.35,0,.53,0a.47.47,0,0,0,.46-.31A.38.38,0,0,0,33.59,16.33Z"/><path class="cls-3" d="M38.23,25.14A.38.38,0,0,1,38,25a1.28,1.28,0,0,1-.28-1l.07-.08s0-.09.06-.15a.49.49,0,0,0-.34-.61.64.64,0,0,1-.38-.45c-.1-.35-.18-.71-.26-1.07a.11.11,0,0,0,0-.09h0a.49.49,0,0,0,0-.12,14.74,14.74,0,0,1-.3-2.66c0-1-.07-2-.13-3v-.32c0-.12,0-.25,0-.38a7.24,7.24,0,0,1,.17-2.54,1.52,1.52,0,0,0,.09-1.32,2.54,2.54,0,0,1,0-2.09.68.68,0,0,0-.07-.7,1,1,0,0,0-.31-.32c-.29-.16-.4-.51-.69-.66,0,0,0,0,0,0l-.23-.34a2.75,2.75,0,0,1-.48-.93.76.76,0,0,0-.59-.58l-.66-.18a.44.44,0,0,1-.29-.3.79.79,0,0,0-.42-.52,4.3,4.3,0,0,0-.76-.34A5.12,5.12,0,0,0,30.57,4a.42.42,0,0,0-.42.2,4,4,0,0,1,1.78.63c.07,0,.11.06.08.16a1.3,1.3,0,0,0,.34,1.29,3.57,3.57,0,0,0,.94.75.85.85,0,0,1,.47.73c0,.09,0,.14-.11.12-.4-.06-.79-.1-1.19-.17a9.87,9.87,0,0,0-1.88-.24.19.19,0,0,1-.2-.14A11.85,11.85,0,0,0,28.31,4.1,12.14,12.14,0,0,0,26.2,2.22,11.67,11.67,0,0,0,22.38.41a11.33,11.33,0,0,0-7.25.4A11.94,11.94,0,0,0,8.37,7.39a.14.14,0,0,1-.16.12,6.19,6.19,0,0,0-1.61.13c-.58.12-1.17.19-1.76.27,0,0-.11,0-.1-.07a.84.84,0,0,1,.44-.76,3.76,3.76,0,0,0,.92-.72A1.31,1.31,0,0,0,6.49,5c0-.07,0-.1,0-.13a4.84,4.84,0,0,1,1.36-.59l.46-.07A.44.44,0,0,0,8,4a5.11,5.11,0,0,0-2.35.64.81.81,0,0,0-.4.5.41.41,0,0,1-.31.31l-.67.19a.67.67,0,0,0-.52.48A4.61,4.61,0,0,1,2.39,8.08l-.14.11L2,8.39a.76.76,0,0,0-.16.9,2.64,2.64,0,0,1,0,2.08,1.17,1.17,0,0,0,0,1,4.92,4.92,0,0,1,.33,2.18C2.09,15.82,2,17.14,2,18.45a17.94,17.94,0,0,1-.6,4.26.74.74,0,0,1-.43.54A.51.51,0,0,0,.71,24a.4.4,0,0,1,.07.21,1,1,0,0,1-.55.9.35.35,0,0,0-.14.57,1.67,1.67,0,0,0,.36.39c.14.11.33.18.23.46l.16-.12a.1.1,0,0,1,.14,0,6.73,6.73,0,0,0,.73.32c.07,0,.08.06.05.12l-.12.3A.71.71,0,0,0,2,27a.12.12,0,0,1,.14,0,7,7,0,0,0,1.28.24,2.87,2.87,0,0,0,1.13-.08.39.39,0,0,0,.34-.42A.27.27,0,0,1,5,26.43a.45.45,0,0,0,.16-.57.64.64,0,0,1,0-.57,6.77,6.77,0,0,1,.65-1.1,2.32,2.32,0,0,1,.74-.69,3,3,0,0,0,1.2-1.28c.46-.87.93-1.75,1.36-2.65a2.88,2.88,0,0,1,.22-.38l.15.21a12.72,12.72,0,0,0,2,2.3l.55.48a0,0,0,0,1,0,0l-.07.06a2.4,2.4,0,0,0-.94,1.21c0,.12-.1.23-.14.34a.78.78,0,0,1-.3.39,2.06,2.06,0,0,0-.54.56l0,0a1.11,1.11,0,0,0,.05,1.49,2.58,2.58,0,0,0,.65.49,9,9,0,0,0,2.07.89.25.25,0,0,0,.12,0,.24.24,0,0,0,.16.07,21.54,21.54,0,0,0,3.48.64,24.81,24.81,0,0,0,6.83-.25,7.13,7.13,0,0,0,1-.22c.06,0,.13,0,.18,0h0l.13,0c.65-.15,1.29-.34,1.94-.5a4.1,4.1,0,0,0,1.9-1.15.94.94,0,0,0,.22-1.13,2.83,2.83,0,0,0-.71-.83.13.13,0,0,0-.06-.1,2,2,0,0,1-.43-1,.22.22,0,0,0-.08-.15,5.5,5.5,0,0,0-.84-.69c0-.05-.17-.07-.05-.17a8.84,8.84,0,0,0,1.06-1,.11.11,0,0,0,.06-.07.09.09,0,0,0,.06-.06,13,13,0,0,0,1.36-1.65c0,.09.08.15.11.22.21.42.4.85.63,1.25a.37.37,0,0,0,.09.16.16.16,0,0,0,.05.11.06.06,0,0,0,0,.06c.1.21.21.42.33.62a.13.13,0,0,0,.05.09l.2.39a2.83,2.83,0,0,0,1.18,1.24,1.88,1.88,0,0,1,.36.27,5.19,5.19,0,0,1,1.09,1.67.47.47,0,0,1,0,.4.41.41,0,0,0,.07.5.61.61,0,0,1,.21.43c0,.23.21.27.39.32a2.49,2.49,0,0,0,1,.07,6.51,6.51,0,0,0,2.85-.88,2,2,0,0,0,.58-.53A.36.36,0,0,0,38.23,25.14Zm-.57-.56c.1.25.19.49.27.75s0,.24-.14.35a6.43,6.43,0,0,1-2.25.89,1.05,1.05,0,0,0-.24.06l-.81.05h-.18l-.23,0s-.08,0-.07-.05,0,0,.06,0a9.22,9.22,0,0,0,2.55-1.22h0a2.46,2.46,0,0,0,.44-.34,1.16,1.16,0,0,0,.39-.46C37.59,24.42,37.6,24.42,37.66,24.58ZM33.76,7.21l0,0-.09-.05h0L33.36,7l.55,0h0c-.13,0-.26-.09-.39-.15a2.29,2.29,0,0,1-.9-.64s0-.11-.09-.06,0,.07,0,.11.06,0,.07.1h0l-.12-.1-.17-.15a1.32,1.32,0,0,1-.24-1c0-.25.17-.32.4-.2a4.75,4.75,0,0,1,.85.55,1.45,1.45,0,0,0,.71.3.7.7,0,0,1,.62.55,4.57,4.57,0,0,0,.57,1.07,4.61,4.61,0,0,0,.94,1l.22.21a.39.39,0,0,1,.11.45,4.18,4.18,0,0,0-.25.92.19.19,0,0,1-.16.19,2.87,2.87,0,0,1-1.27,0c-.29-.09-.35-.19-.29-.5h0c.05-.25,0-.54.4-.55l-.21,0a.37.37,0,0,1-.31-.23l-.5-1.16a.93.93,0,0,1-.1-.35h0a.07.07,0,0,0,0,0v0l0,0Zm.75,3.26a1.82,1.82,0,0,0,1.12.24l.52,0c.09,0,.1,0,.12.11s0,.13-.09.13a3.91,3.91,0,0,1-1.56-.09c-.06,0-.09,0-.08-.12A1.38,1.38,0,0,0,34.51,10.47Zm1.44.09a2.69,2.69,0,0,1-1,0l-.23-.07c-.19-.08-.21-.12-.19-.35a2.5,2.5,0,0,0,1.72.23A.34.34,0,0,1,36,10.56Zm-1.38.34a4.41,4.41,0,0,0,1.69.19l0,0a.27.27,0,0,1-.28.13c-.31,0-.62-.06-.93-.07a1.14,1.14,0,0,1-.48-.12s-.09,0-.09-.09S34.5,10.87,34.57,10.9Zm-2.78-3a4.29,4.29,0,0,1,1.29,0l.47,0a.45.45,0,0,1,.45.44.83.83,0,0,0,.28.43c.29.27.31.39.15.75-.08.19-.08.19-.28.14a1.15,1.15,0,0,1-.31-.11c-.26-.14-.31-.26-.24-.56-.22.25-.45.17-.68.07l-1.21-.48c-.22-.09-.3-.2-.28-.38S31.56,8,31.79,7.94Zm-1.18,7c-.16-.12-.27-.3-.46-.39,0,0,0,0,0-.08a3.68,3.68,0,0,0,.06-.58c0,.19-.07.39-.11.6l-.43-.3-.41-.28a.38.38,0,0,1-.13-.18c-.08-.24,0-.38.25-.32a4.91,4.91,0,0,1,1.42.59.12.12,0,0,1,.07.14c-.05.26-.09.51-.13.76C30.7,14.93,30.68,14.94,30.61,14.89Zm0,.43c-.07.22-.12.45-.19.68-.17-.11-.34-.17-.49-.28s-.08-.06-.06-.14a6.55,6.55,0,0,0,.21-.9c0-.07,0-.08.09,0a.35.35,0,0,1,.13.11.76.76,0,0,0,.2.23A.25.25,0,0,1,30.61,15.32Zm.18.8a.88.88,0,0,0,.05-.15c.05-.15.09-.3.13-.45s.05-.2.23-.08a1.65,1.65,0,0,1,.35.48s0,.05,0,.07a2.78,2.78,0,0,1-.5.21.35.35,0,0,1-.2,0S30.78,16.17,30.79,16.12Zm.36-.89a.12.12,0,0,1-.07-.16c.06-.27.11-.54.16-.81a1.26,1.26,0,0,1,.83.4,5.3,5.3,0,0,0,.52.42c0,.05.06.07,0,.13a4.05,4.05,0,0,1-.77.61s-.07,0-.09,0A1.39,1.39,0,0,0,31.15,15.23Zm1.42-.29a2.58,2.58,0,0,1-.5-.43.89.89,0,0,0-.63-.33c-.19,0-.18,0-.16-.22a12.64,12.64,0,0,0,.06-2.75c0-.19,0-.37-.06-.59A2.18,2.18,0,0,0,32,11a.68.68,0,0,1,.25.14,5,5,0,0,0,.64.42.17.17,0,0,1,.11.09,3.75,3.75,0,0,0,.54.82.15.15,0,0,1,0,.17,2.71,2.71,0,0,0-.39,1.4,1.84,1.84,0,0,1-.29.87C32.79,15,32.72,15.05,32.57,14.94Zm.54-3.42a.27.27,0,0,1,.07-.27,2.14,2.14,0,0,0,.28-.35c-.16.06-.21.17-.29.25s-.05.13-.11.08,0-.09.06-.13l.23-.28c-.1,0-.14.06-.18.11l-.23.28a.19.19,0,0,1-.28,0c-.33-.21-.33-.2-.24-.58,0-.09,0-.18,0-.28s-.06,0-.07.06l-.06.24c-.07.24-.12.27-.33.16a4.78,4.78,0,0,1-.61-.28.33.33,0,0,1-.18-.27,2.25,2.25,0,0,0-.06-.36c0-.15,0-.21.18-.17l.34.11a1.71,1.71,0,0,0,.59.11,1.19,1.19,0,0,1,.84.3,5.51,5.51,0,0,1,.87.8,2.16,2.16,0,0,0,.39.46c.05,0,0,.07,0,.1a6.15,6.15,0,0,1-.62.63s-.07,0-.1,0A1.87,1.87,0,0,1,33.11,11.52Zm-2-3.21c.09,0,.12,0,.15-.08a2.6,2.6,0,0,1,.1-.25.14.14,0,0,1,.13-.11,1.46,1.46,0,0,0-.18.43.32.32,0,0,0,0,.27,1,1,0,0,0,.3.3A3.07,3.07,0,0,0,33,9.35a1.19,1.19,0,0,1,.79.38,4.93,4.93,0,0,0,.4.39.44.44,0,0,1,.08.54.48.48,0,0,0-.09.27c-.31-.25-.6-.49-.88-.75a1.66,1.66,0,0,0-1.15-.42,2.61,2.61,0,0,1-1-.37.12.12,0,0,1,0-.07c-.09-.38-.21-.76-.34-1.16A4,4,0,0,1,31.14,8.31Zm-24-.23c.1.25.1.25.35.17l.55-.18h0v0c-.11.36-.22.72-.32,1.08a.11.11,0,0,1-.09.09A4,4,0,0,0,7,9.59a1.21,1.21,0,0,1-.61.16A1.9,1.9,0,0,0,5,10.36c-.19.2-.43.37-.65.56-.06-.21-.2-.39-.15-.61,0-.05,0-.09,0-.12l.65-.62a.71.71,0,0,1,.41-.17A3.88,3.88,0,0,0,6.67,9l0,0c.52-.32.56-.54.27-1.06C7.11,7.89,7.12,8,7.16,8.08ZM7.91,16s0,.07,0,.09a.57.57,0,0,1-.64,0l-.06,0c-.27-.14-.27-.14-.1-.4a1.62,1.62,0,0,1,.61-.49C7.76,15.47,7.83,15.73,7.91,16ZM8,13.8a8.13,8.13,0,0,1,1.16-.44c.11,0,.22-.06.29.07a.33.33,0,0,1-.07.36L9.11,14l-.88.59a2.38,2.38,0,0,0-.19.17c0-.29-.09-.55-.14-.82A.1.1,0,0,1,8,13.8Zm-.54-3.71a.34.34,0,0,1-.1.27,1.21,1.21,0,0,1-.46.31c-.13.06-.27.11-.4.18s-.22,0-.27-.13a1.68,1.68,0,0,1-.06-.24.69.69,0,0,1,0-.13H6c0,.16.06.32.1.48a.2.2,0,0,1-.1.25l-.13.09c-.18.14-.25.13-.41-.06a.78.78,0,0,0-.32-.3,3.76,3.76,0,0,0,.25.31s.06.07,0,.1-.06,0-.08-.05-.15-.23-.31-.26l.25.3a.31.31,0,0,1,0,.4,2.29,2.29,0,0,1-.43.59c-.07.06-.12.09-.2,0s-.37-.36-.54-.55-.08-.12,0-.19a4.46,4.46,0,0,0,.49-.57,5.4,5.4,0,0,1,.93-.79A.74.74,0,0,1,6.12,10,2.19,2.19,0,0,0,7,9.79C7.32,9.67,7.39,9.73,7.41,10.09Zm-.11-.5c.23,0,.33.22.26.51A.53.53,0,0,0,7.3,9.59ZM5,12.42a3.85,3.85,0,0,0,.52-.81s.07-.06.11-.09a3.66,3.66,0,0,0,.66-.45,1.09,1.09,0,0,1,.31-.14,1.82,1.82,0,0,0,.78-.43,1.66,1.66,0,0,0,.16-.21A16,16,0,0,0,7.38,12a12,12,0,0,0,.09,1.9.16.16,0,0,1-.1.18.85.85,0,0,1-.34.11.87.87,0,0,0-.58.32,3.73,3.73,0,0,1-.52.45c-.15.1-.21.1-.29-.06a1.93,1.93,0,0,1-.3-.9A2.64,2.64,0,0,0,5,12.62.15.15,0,0,1,5,12.42Zm.95,2.65.65-.56a1,1,0,0,1,.54-.23,1.4,1.4,0,0,0,.37-.14l.15.81a.11.11,0,0,1-.06.14l-.27.15a1.39,1.39,0,0,0-.55.55s0,.06-.09,0a4.42,4.42,0,0,1-.76-.61C5.85,15.15,5.86,15.12,5.93,15.07ZM4.88,8a6.44,6.44,0,0,1,1.86-.07.38.38,0,0,1,.33.36.31.31,0,0,1-.23.36l-1.43.57a.48.48,0,0,1-.52-.14c.09.3.05.39-.18.54a1.85,1.85,0,0,1-.5.17s-.08,0-.09,0S4,9.52,4,9.4a.53.53,0,0,1,.25-.54.83.83,0,0,0,.29-.48A.41.41,0,0,1,4.88,8ZM2.73,11.08a3.23,3.23,0,0,0,1.16-.17s.07-.07.1,0A.09.09,0,0,1,4,11a.87.87,0,0,1-.34.12l-1.06.1a.31.31,0,0,1-.35-.17Zm-.5-.26c0-.11,0-.15.16-.14s.47,0,.7,0A1.68,1.68,0,0,0,4,10.48c0,.11,0,.19,0,.28s-.07.07-.11.08a2.54,2.54,0,0,1-.78.12l-.7,0C2.31,10.93,2.23,10.93,2.23,10.82Zm1.59-.36a2.23,2.23,0,0,1-1.2.1c-.15,0-.28,0-.34-.22A2.47,2.47,0,0,0,4,10.13C4,10.34,4,10.38,3.82,10.46ZM2,9.13a.41.41,0,0,1,.12-.53l.47-.43A5,5,0,0,0,3.74,6.55l.09-.25a.64.64,0,0,1,.54-.51,1.78,1.78,0,0,0,.94-.44,4.52,4.52,0,0,1,.76-.46A.2.2,0,0,1,6.38,5a1,1,0,0,1,0,.45A1.48,1.48,0,0,1,6,6.31s-.07.09-.15.06a1.34,1.34,0,0,0,.11-.14s.07-.06,0-.1-.06,0-.08,0a2.33,2.33,0,0,1-1.13.75C4.64,7,4.63,7,4.6,7l.51-.08V7l-.35.22c-.09.05-.09-.1-.19-.09.19.23.06.43,0,.63l-.36.82a2.5,2.5,0,0,0-.09.25.5.5,0,0,1-.56.31l0,0c.25,0,.33.18.36.4a1.55,1.55,0,0,0,0,.21.33.33,0,0,1-.21.4,2.22,2.22,0,0,1-1.14.09c-.35,0-.35,0-.42-.4A3.4,3.4,0,0,0,2,9.13Zm-1.27,17a2.41,2.41,0,0,1-.53-.47.24.24,0,0,1,0-.29.43.43,0,0,1,.25-.21c.05,0,.05.05,0,.08-.1.25,0,.4.22.52s.17.09.18.15S.77,26.07.73,26.15Zm.31.17a.34.34,0,0,1,.41-.07.46.46,0,0,1,.34.4C1.53,26.55,1.29,26.44,1,26.32Zm.77-.92c-.18,0-.18.05-.15.24s0,.09-.07.08a.78.78,0,0,0-.58.09s-.07,0-.09,0c-.45-.26-.43-.24-.27-.69.06-.19.14-.38.21-.57s.09-.12.14,0a2.91,2.91,0,0,0,.91.87Zm.15.5c.06-.08.2,0,.21-.12a.79.79,0,0,0,0-.25.14.14,0,0,1,.11,0,15.24,15.24,0,0,0,1.81.9,2.34,2.34,0,0,0,.38.09s.08,0,.08.05,0,0-.08,0a3.24,3.24,0,0,1-.88,0A6.49,6.49,0,0,1,2.3,26.4c-.07,0-.11,0-.12-.12A.67.67,0,0,0,2,25.9Zm2.66,1a2.83,2.83,0,0,1-.7.12,7.19,7.19,0,0,1-1.66-.24c-.18-.06,0-.16,0-.24s.09,0,.12,0a7.17,7.17,0,0,0,2.11.24.2.2,0,0,0,.21-.15s0-.09.08-.08a.12.12,0,0,1,.09.1A.24.24,0,0,1,4.62,26.93Zm4.91-8.4a.42.42,0,0,0-.08.12,3.65,3.65,0,0,1-.44.91c-.28.5-.55,1-.81,1.52l-.08.13,0,0,.67-1.4,0,0-.09.16a15.67,15.67,0,0,0-.82,1.64,1.91,1.91,0,0,1-1.09,1.15.42.42,0,0,0,.33,0l.31-.19s0,0,0,0,0,0,0,0,0,0,0,0,0,0,0,0a.26.26,0,0,1-.07.14,2.44,2.44,0,0,1-.65.59l-.3.19a2.31,2.31,0,0,0-.8.87A5.27,5.27,0,0,0,4.72,26a1.24,1.24,0,0,0,0,.16s0,.09-.07.07-.06,0,0-.1c.07-.23.15-.46.22-.7,0-.06.07-.12,0-.2a2.28,2.28,0,0,0-.35.87c0,.06,0,.09-.09.07l-.63-.24a.1.1,0,0,1-.07-.11,1.61,1.61,0,0,0-.38-1c-.26-.34-.58-.64-.86-1a.45.45,0,0,1,.15-.73A.69.69,0,0,1,3.1,23a3.94,3.94,0,0,1,.49.14,2.84,2.84,0,0,0,.47.15A.84.84,0,0,0,4.88,23a1.92,1.92,0,0,0,.38-.77,1.83,1.83,0,0,1,.24-.58.45.45,0,0,0,0-.46,4.16,4.16,0,0,0-.24-.47c-.09-.14-.23-.14-.3,0a2.15,2.15,0,0,0-.2.71.34.34,0,0,0,.14.3.31.31,0,0,1,.1.32,1.23,1.23,0,0,1-.32.68.69.69,0,0,1-.78.13,2.61,2.61,0,0,0-.86-.27,1.2,1.2,0,0,0-.74.16.87.87,0,0,0-.4.94,1.56,1.56,0,0,0,.47.81l.44.47a1.3,1.3,0,0,1,.34.67v0h0a5.52,5.52,0,0,1-2-1.45.14.14,0,0,1,0-.16c.09-.34.18-.67.28-1a.43.43,0,0,0,0-.11c0-.13.06-.17.17-.12a1.24,1.24,0,0,1,.07-.71c.12-.48.25-1,.33-1.46a6.5,6.5,0,0,0,.06-1c.07-1.58.14-3.17.2-4.75a8.79,8.79,0,0,0,0-1.7c-.07-.39-.21-.77-.32-1.16,0-.11,0-.17.1-.17a.26.26,0,0,1,0-.32.21.21,0,0,1,.2-.14l1.69-.16c.14,0,.15,0,.12.15a.3.3,0,0,1-.15.21l-.24.11s.06,0,.09,0a1,1,0,0,1,.65.29,2.55,2.55,0,0,1,.87,2.12,1.48,1.48,0,0,0,.4,1.08,3.76,3.76,0,0,0,1.37,1l.25.12v0l-1.12.22a.73.73,0,0,0,.55.08,8.63,8.63,0,0,0,1.58-.53,3.7,3.7,0,0,0,.66-.42c.19-.15.37-.3.57-.43a.82.82,0,0,0,.38-.54,2.74,2.74,0,0,1,.42-.9,7.25,7.25,0,0,1,1.22-1.4c0,.21-.05.38-.08.55a.88.88,0,0,0,.15.59.55.55,0,0,0,.82.13.92.92,0,0,0,.34-.5,3.07,3.07,0,0,0,.11-.36.17.17,0,0,1,.06.17,4.27,4.27,0,0,1-.22.87A2.85,2.85,0,0,0,12.46,15a.89.89,0,0,1-.37.75l-.43.35a1,1,0,0,0-.29.41.76.76,0,0,1-.23.3C10.58,17.35,10.06,17.94,9.53,18.53ZM12,13a.34.34,0,0,1,.29.09c.11.1.15.09.21,0a.93.93,0,0,1,0-.13c.17.22.18.3,0,.43s0-.06,0-.08l0,0c-.13.12-.13.12-.23,0s-.2-.19-.38-.08-.14,0-.17-.07,0-.13-.07,0,0,0,0,0-.06-.13,0-.2a.63.63,0,0,1,.22-.16.34.34,0,0,1,0,.11C11.76,13,11.77,13,12,13Zm.45-2.13h0c0,.09,0,.22-.17.21,0,0,0,0,0-.05S12.3,10.86,12.41,10.88Zm.1.31a1,1,0,0,0-.31,1.27.76.76,0,0,1-.1-.83C12.19,11.35,12.34,11.19,12.51,11.19Zm.39-.5a.53.53,0,0,0-.43-.08l.4-.78C12.87,10.14,12.92,10.41,12.9,10.69Zm-.08.58a.14.14,0,0,1,0-.19s.05,0,.06,0S12.88,11.22,12.82,11.27Zm-.51,1a3.07,3.07,0,0,0,.22-.88A.76.76,0,0,1,12.31,12.3Zm.24-1.37c0-.06,0-.12.09-.13s.06,0,0,.11,0,.14-.1.14S12.54,11,12.55,10.93Zm-.28,1.32a.77.77,0,0,1,.21-.88A4.34,4.34,0,0,0,12.27,12.25Zm.33-1a.81.81,0,0,1,.09.86c-.1.28-.24.41-.4.4A1,1,0,0,0,12.6,11.23Zm-.85,13.36a.3.3,0,0,1,.31-.3.3.3,0,0,1,0,.6A.31.31,0,0,1,11.75,24.59ZM13.64,26a1.26,1.26,0,0,1-1.57,0,1.62,1.62,0,0,0,1-2.06,1.13,1.13,0,0,1,1,.86A1.09,1.09,0,0,1,13.64,26Zm2.72,1a1.15,1.15,0,0,1-1.06.13.12.12,0,0,1-.09-.1A3.2,3.2,0,0,1,15.46,25c0-.09.09-.12.19-.11a1.34,1.34,0,0,1,1.27,1l0,.09A1.27,1.27,0,0,1,16.36,27.05Zm4.31-.53a1.09,1.09,0,0,1-.35.76,1.36,1.36,0,0,1-2-.18A1,1,0,0,1,18.22,26a1.36,1.36,0,0,1,1.18-.68A1.27,1.27,0,0,1,20.67,26.52Zm2.72.64-.26,0A1.37,1.37,0,0,1,22,26.54a1.2,1.2,0,0,1,.89-1.74.36.36,0,0,1,.41.26c.18.49.34,1,.5,1.48A.56.56,0,0,1,23.39,27.16Zm2.75-.84c0,.05-.05.08-.09.12s.08-.07.09-.12a.09.09,0,0,0,0-.08h0A.16.16,0,0,1,26.14,26.32Zm-1.34-.67a1.06,1.06,0,0,1,.26-1.74,1.13,1.13,0,0,1,.32-.13,1.56,1.56,0,0,0,1.19,1.87A1.23,1.23,0,0,1,24.8,25.65Zm2.08-1.15a.3.3,0,1,1-.59,0,.31.31,0,0,1,.29-.3A.31.31,0,0,1,26.88,24.5Zm2-5.44a12.53,12.53,0,0,1-1,1.21l-.09.11a.22.22,0,0,0-.09.1l-.11.11a.11.11,0,0,0-.06.07l-1,.9-.08.07a.65.65,0,0,0-.18.15s-.06,0-.08.08-.12.06-.16.1A5.86,5.86,0,0,1,23,23.26a36,36,0,0,1-3.74.32h-.8a.1.1,0,0,0-.09,0,1.13,1.13,0,0,0-.32-.06c-.83-.08-1.67-.16-2.5-.31a7.84,7.84,0,0,1-3.65-1.71l-.07-.05a10.25,10.25,0,0,1-1.67-1.87c-.17-.24-.32-.49-.48-.73a.14.14,0,0,1,0-.19,8.29,8.29,0,0,1,.93-1.11c.59-.59,1.12-1.23,1.7-1.84a.93.93,0,0,0,.25-.55c.07-.59.21-1.16.33-1.74a1.05,1.05,0,0,0,0-.76.34.34,0,0,1,0-.2c.06-.66.13-1.32.18-2a2.2,2.2,0,0,0-.19-1.13,1.11,1.11,0,0,0-.21.32c-.23.53-.47,1.06-.68,1.61-.1.24-.21.48-.32.72a1.62,1.62,0,0,1-.37.45A6.15,6.15,0,0,0,10,14a2.68,2.68,0,0,0-.3.72.86.86,0,0,1-.27.38l-.28-.67a1.34,1.34,0,0,0,0,.63.35.35,0,0,1-.19.44l-.53.35c-.06,0-.08,0-.1,0A5.67,5.67,0,0,1,8.1,15a.34.34,0,0,1,.2-.32c.39-.23.74-.5,1.1-.76a3.36,3.36,0,0,0,.34-.41l.36-.41a.12.12,0,0,0,0-.15.1.1,0,0,0-.14,0c-.57.32-1.21.45-1.8.71l-.3.13a6.4,6.4,0,0,1-.08-.86,12.2,12.2,0,0,1,.23-3,.3.3,0,0,1,.18-.24l.85-.43a.1.1,0,0,0,.06,0,5.58,5.58,0,0,0-.91,0,4.42,4.42,0,0,1,.14-.52c0-.1.07-.19.1-.29.09-.32.19-.64.6-.69l0,0c-.26-.06-.26-.06-.15-.31A11.58,11.58,0,0,1,16.57.8,11.23,11.23,0,0,1,27.66,4a11.77,11.77,0,0,1,2.26,3.35c.07.16.07.16-.11.19l-.36.08.62.3a.23.23,0,0,1,.14.15,10,10,0,0,1,.34,1.1,7.8,7.8,0,0,0-1.18,0l.59.29a2.11,2.11,0,0,1,.71.51s.07.07.07.12a13.79,13.79,0,0,1,.13,3.74l0,.06a6,6,0,0,0-1.46-.61,6.32,6.32,0,0,1-.81-.34c-.06,0-.13-.09-.19,0s0,.14.06.2c.19.25.43.47.61.73a1.09,1.09,0,0,0,.26.21l.65.46a.12.12,0,0,1,.06.14,8.34,8.34,0,0,1-.26.85c0,.07,0,.09-.11,0S29.23,15.2,29,15a1.06,1.06,0,0,1-.27-.51,3.23,3.23,0,0,0-.64-1.11,7.35,7.35,0,0,0-.92-.93,1.51,1.51,0,0,1-.43-.57c-.3-.71-.61-1.42-.91-2.14a2.12,2.12,0,0,0-.24-.4,2.08,2.08,0,0,0-.21,1.06c.05.67.12,1.33.19,2a.78.78,0,0,1-.05.37,1.06,1.06,0,0,0,0,.61,17.82,17.82,0,0,1,.34,1.77,1.52,1.52,0,0,0,.54.86l.11.11.4.44a.13.13,0,0,0,.06.07c.36.44.77.82,1.15,1.24.1.1.15.19,0,.31a.13.13,0,0,0-.07.09l-.48.67a.13.13,0,0,0-.06.07,8.39,8.39,0,0,1-1.14,1.24s0,0,0,0l-.29.23-.06,0h0c-.2.15-.42.26-.61.43a.61.61,0,0,0-.17.07l-1,.53a5.87,5.87,0,0,1-2.16.68c-.73.08-1.46.09-2.19.11h-.47v.05a7.27,7.27,0,0,0,3,0,8.49,8.49,0,0,0,3.21-1.31A9.29,9.29,0,0,0,27.1,20.1l.16-.16a.38.38,0,0,0,.11-.11,9.86,9.86,0,0,0,1.2-1.44,6.42,6.42,0,0,1,.38.53C29,19,28.94,19,28.91,19.06ZM26,13.36c-.17-.12-.17-.15,0-.44L26,13c.07.21.09.22.25.09a.32.32,0,0,1,.27-.07c.18,0,.2,0,.18-.18a.5.5,0,0,0,0-.12.43.43,0,0,1,.21.14c.09.07,0,.17,0,.23s0,0-.07-.05l0,.12c0,.07-.07.08-.14,0-.23-.12-.26-.12-.41.09s-.1.13-.23,0C26,13.29,26,13.35,26,13.36Zm-.4-2.65.05-.87.39.77A.57.57,0,0,0,25.59,10.71Zm.09.57c-.05,0-.11-.09-.08-.18s0,0,.06,0S25.72,11.21,25.68,11.28Zm.57.06a1,1,0,0,1,.21.69.47.47,0,0,0,.19.4s0,0-.06,0,0,.08-.06.05-.05-.07,0-.1,0-.11,0-.13-.06.05-.08.08-.05.11-.11.13,0-.06,0-.08a.34.34,0,0,0,.06-.12c0-.06.05-.14,0-.16s-.05.08-.11.13a4.4,4.4,0,0,0-.21-.89.75.75,0,0,1,.27.56s0,.09,0,.14,0,.07.06.06,0,0,0-.07a.86.86,0,0,0-.4-.8s0,0,0,0A.27.27,0,0,1,26.25,11.34Zm-.11-.43s0,0,.05,0,0,.12,0,.19S26.09,11,26.14,10.91Zm-.18.53c0,.15.1.27.05.4a.13.13,0,0,0,0,.1c.11.09.09.23.14.36C26,12.22,25.84,11.73,26,11.44Zm-.06-.38c-.08,0-.08-.1-.09-.16s0-.09.05-.09.09.09.1.16S26,11.07,25.9,11.06Zm-.09.27a.86.86,0,0,1,.07-.1l0,0a.78.78,0,0,0-.11.61c.05.25.1.5.38.59,0,0,0,0,0,.05s0,0,0,0a.27.27,0,0,1-.14-.07A1.07,1.07,0,0,1,25.81,11.33Zm7.16,13,0,0a.32.32,0,0,0-.08-.12,2.11,2.11,0,0,0-.76-.78,2.92,2.92,0,0,1-.83-.65.91.91,0,0,1-.16-.24s0,0,0,0h0l.18.13a.54.54,0,0,0,.47.13l-.43-.24a2.44,2.44,0,0,1-.63-.83.41.41,0,0,0-.07-.15,4.72,4.72,0,0,0-.27-.61c-.2-.43-.45-.84-.68-1.26q.29.69.63,1.35c0,.08.08.13.06.22-.28-.45-.5-.95-.78-1.41a.13.13,0,0,0-.05-.09l-.3-.55a1,1,0,0,1-.13-.27,1.34,1.34,0,0,0-.34-.56c-.47-.53-.95-1-1.45-1.55a.94.94,0,0,1-.25-.39,1,1,0,0,0-.37-.4l-.39-.34A.88.88,0,0,1,26,15a2.6,2.6,0,0,0-.19-1,4,4,0,0,1-.23-.91.22.22,0,0,1,0-.19,1,1,0,0,1,.1.27,1.18,1.18,0,0,0,.19.41.62.62,0,0,0,.68.29.7.7,0,0,0,.46-.56,2,2,0,0,0,0-.64,1,1,0,0,0,0-.16,2.22,2.22,0,0,1,.45.41,7.11,7.11,0,0,1,1,1.32,1.54,1.54,0,0,1,.18.48,1,1,0,0,0,.47.66,1.44,1.44,0,0,1,.25.18,4.65,4.65,0,0,0,1.95,1,4.61,4.61,0,0,0,.64.16.64.64,0,0,0,.44-.09l-1.15-.23A6.3,6.3,0,0,0,32,16,3.06,3.06,0,0,0,33,15a1.49,1.49,0,0,0,.26-.94A2.57,2.57,0,0,1,34.21,12a1,1,0,0,1,.69-.25l-.2-.09c-.06,0-.13-.07-.16-.14a.32.32,0,0,1,0-.23s.12,0,.18,0l1.4.14h.22a.22.22,0,0,1,.22.14c0,.11.07.22,0,.32.14,0,.13.09.09.2s-.11.38-.17.58a3.73,3.73,0,0,0-.19.95c0,.72,0,1.45,0,2.18v.12c0,.21,0,.41,0,.62v.06c0,.67,0,1.35.07,2,0,.38,0,.77,0,1.15a7.14,7.14,0,0,0,.24,1.72c.09.32.14.65.24,1a.5.5,0,0,1,0,.34l0,0a.1.1,0,0,0,.09,0,.08.08,0,0,1,.09.07c.07.41.21.79.31,1.18a.2.2,0,0,1,0,.2,5,5,0,0,1-1.43,1.17l-.1.06a.05.05,0,0,0,0,0l-.15.08h0l-.06,0a14.27,14.27,0,0,1-1.33.55c-.11,0-.17,0-.16-.1A.32.32,0,0,0,34,26a2.7,2.7,0,0,0-.27-.66l0,0,.22.65c0,.06,0,.12,0,.18s0,.08,0,.09-.06,0-.07-.06A5,5,0,0,0,33,24.32Zm5.25,1.46a3.43,3.43,0,0,1-1.3.79,6.47,6.47,0,0,1-2,.48,2.78,2.78,0,0,1-1-.12.3.3,0,0,1-.18-.15.26.26,0,0,1,0-.15.1.1,0,0,1,.08-.07s.06,0,.08.06a.41.41,0,0,0,.44.17h.15a4,4,0,0,0,.69,0h.17l.19,0h0a5.33,5.33,0,0,0,1-.28,5.4,5.4,0,0,0,1.32-.65.36.36,0,0,0,.18-.48s0-.08,0-.1.07,0,.1,0C38.43,25.4,38.43,25.54,38.22,25.78Z"/><path class="cls-3" d="M32.3,20.18a1,1,0,0,0-.38,0c-.1,0-.14-.06-.13-.14a.23.23,0,0,1,.25-.19.41.41,0,0,0,.42-.17c0-.06.07-.12-.05-.13a.61.61,0,0,1-.26-.08.25.25,0,0,1,0-.42c0-.05.13-.08.16-.16a.42.42,0,0,0-.6.21c-.05.15-.14.17-.27.18s-.15,0-.18-.11.06-.11.11-.14.17-.07.25-.12a.11.11,0,0,0,.05-.14.07.07,0,0,0-.11,0,.18.18,0,0,1-.19,0,4.93,4.93,0,0,1-.54-.34s-.06-.06-.1,0,0,.07,0,.1a3,3,0,0,1,.05.67c0,.09-.07.21,0,.25s.18,0,.26-.1.08,0,.12,0,0,.19,0,.29-.1,0-.16,0h-.17a.36.36,0,0,0-.3.31c0,.08,0,.13.11.1a.2.2,0,0,1,.27.11.39.39,0,0,1-.1.36.35.35,0,0,0,.55-.18c0-.16.13-.16.25-.14s.18.09.09.2a.76.76,0,0,0-.13.44.14.14,0,0,0,.13.16c.09,0,.09-.08.09-.14a.7.7,0,0,1,.09-.37l.15.19s.07.07.12,0,.06-.08,0-.14a2,2,0,0,0-.11-.2c.21-.09.36.1.56.07A.41.41,0,0,0,32.3,20.18Zm-1.46-1.07V18.8C31,19,31,19,30.84,19.11Zm.32,1a.3.3,0,0,1-.29.29.31.31,0,0,0,.11-.37c-.07-.17-.22-.19-.39-.19a.25.25,0,0,1,.33-.12A.39.39,0,0,1,31.16,20.13Zm-.1-1.3-.15-.26,0,0,.38.25-.1.07C31.14,18.93,31.09,18.92,31.06,18.83ZM32,19c-.16.33.1.45.29.6a.26.26,0,0,1-.4-.09A.36.36,0,0,1,32,19Zm-.7.57a4.44,4.44,0,0,1,.24.39C31.25,20,31.15,19.81,31.26,19.58Zm.42.31-.29-.45c.16,0,.31,0,.39.18S31.77,19.81,31.68,19.89Z"/><path class="cls-3" d="M28.54,17.59a6.27,6.27,0,0,1-.66-.6,1.49,1.49,0,0,1-.15-.2l0,0a.43.43,0,0,0,.16.32l.52.43a2,2,0,0,1,.55.63.2.2,0,0,0,.12.12.49.49,0,0,0-.07-.25A2.26,2.26,0,0,0,28.54,17.59Z"/><path class="cls-3" d="M34.16,24c0,.05,0,.11.1.09s.08-.07.07-.13a.78.78,0,0,1,0-.14.39.39,0,0,1,.06-.26,1.12,1.12,0,0,1,.49-.45c.08,0,.11,0,.15.06a.67.67,0,0,0,.69.35.56.56,0,0,0,.43-.26c0-.05.06-.1,0-.15s-.09,0-.13,0l-.27.14a.59.59,0,0,1-.63-.18c-.16-.13-.06-.27,0-.41a.69.69,0,0,0-.58-.88.43.43,0,0,0-.25,0s-.08.07-.07.12.05.05.08.07.1,0,.16,0c.33-.05.47.08.48.42v.17s0,.09,0,.13,0,.21-.18.25a1,1,0,0,0-.39.25A.73.73,0,0,0,34.16,24Z"/><path class="cls-3" d="M34.5,23a.29.29,0,0,0,.26-.41c0-.07-.08-.17-.19-.09s0,0,0,0-.19,0-.26.06a.33.33,0,0,0,0,.32A.26.26,0,0,0,34.5,23Zm.06-.48a.23.23,0,0,1,.1.15c0,.07,0,.17-.14.18s-.1-.06-.11-.12S34.54,22.48,34.56,22.49Z"/><path class="cls-3" d="M4.86,25.22h0l0,0S4.86,25.23,4.86,25.22Z"/><path class="cls-3" d="M3.46,8.58s.12.06.16,0,0-.09-.08-.12a.2.2,0,0,1-.06-.31A.39.39,0,0,1,3.63,8c.08,0,.08.1.16.08s0-.07,0-.11,0-.07.06-.06S3.9,8.06,4,8s0-.1,0-.15L4,7.81a1.3,1.3,0,0,0,.15-.18.28.28,0,0,0-.13-.44c-.06,0-.15-.06-.18,0s.06.08.11.1.12,0,.11.12-.1.18-.17.25,0-.08-.11-.07,0,.12-.05.15,0-.08-.12-.1c0,.18-.08.24-.18.32a.43.43,0,0,0-.09.1A.35.35,0,0,0,3.46,8.58Z"/><path class="cls-3" d="M1.66,22.81h0Z"/><path class="cls-3" d="M10.73,16.88c-.23.21-.43.45-.68.64a2.27,2.27,0,0,0-.52.55.26.26,0,0,0,0,.24s0,0,0,0l.07-.08a1.7,1.7,0,0,1,.55-.64l.49-.41a.41.41,0,0,0,.18-.34C10.76,16.82,10.75,16.86,10.73,16.88Z"/><polygon class="cls-3" points="1.64 22.82 1.64 22.81 1.64 22.82 1.64 22.82 1.64 22.82"/><polygon class="cls-3" points="1.64 22.82 1.64 22.81 1.64 22.81 1.64 22.82 1.64 22.82"/><path class="cls-3" d="M34.48,7.83s.1.08.05.16a0,0,0,0,0,0,0s0,0,0,0,0-.12.11-.08,0,.11,0,.16l0,0c.06,0,.06-.14.15-.09a.36.36,0,0,1,.19.23c0,.11-.06.15-.13.19s-.09.06-.06.12.08,0,.13,0a.34.34,0,0,0,.1-.53c-.09-.13-.29-.18-.26-.39-.07,0-.06.11-.11.09s0-.09,0-.14-.06.11-.11.07a.44.44,0,0,1-.18-.24c0-.09.07-.11.14-.14s.1,0,.08-.1-.08,0-.12,0a.28.28,0,0,0-.21.42A1.41,1.41,0,0,0,34.48,7.83Z"/><polygon class="cls-3" points="4.59 7.02 4.6 7.02 4.6 7.02 4.59 7.02 4.59 7.02"/><path class="cls-3" d="M4.49,7s.07.13.11,0S4.52,7,4.49,7Z"/><polygon class="cls-3" points="4.6 7.02 4.6 7.02 4.6 7.01 4.59 7.02 4.6 7.02"/><path class="cls-3" d="M5.46,18.46c-.35.24-.53.19-.86-.05a.58.58,0,0,1-.23-.65,3,3,0,0,1,.24-.55,1,1,0,0,0-.83,1.19,1.1,1.1,0,0,0,1.2.94,1,1,0,0,0,.95-1.2Z"/><path class="cls-3" d="M6.4,16.93a5.79,5.79,0,0,0-1,0c-.28,0-.39-.09-.42-.37a.57.57,0,0,0,0-.22c-.08.1-.08.1-.08.18a.46.46,0,0,0,.48.51,5.15,5.15,0,0,1,1.24,0A.18.18,0,0,0,6.4,16.93Z"/><path class="cls-3" d="M4,14a.17.17,0,0,1,.21-.11,1.2,1.2,0,0,1,.52.15s.06.05.08,0,.11-.2.06-.29-.16,0-.25,0l-.17,0a.37.37,0,0,1-.18,0c-.07,0-.11,0,0-.11l.25-.24c.14-.14.14-.15,0-.27l0,0S4.35,13,4.31,13a.13.13,0,0,0-.07.14.6.6,0,0,1-.19.46.22.22,0,0,1-.27.09l-.34-.12c-.21-.09-.21-.09-.23.13a.22.22,0,0,1,0,.08c0,.07,0,.11.09.1l.45,0s.1,0,.12,0,0,.07-.06.1l-.41.44a1.27,1.27,0,0,1,.23.12c.08.07.12,0,.15-.06A4,4,0,0,1,4,14Z"/><path class="cls-3" d="M8.32,18.14a1.82,1.82,0,0,1-.2-.36A1.71,1.71,0,0,0,8,17.49a1.5,1.5,0,0,0,.36.82.48.48,0,0,0,.49.17c.06,0,.1,0,.1-.12A.51.51,0,0,1,8.32,18.14Z"/><path class="cls-3" d="M7.37,22.5v0h0Z"/><polygon class="cls-3" points="4.84 25.23 4.84 25.23 4.84 25.23 4.84 25.24 4.84 25.24 4.84 25.23"/><polygon class="cls-3" points="4.84 25.23 4.84 25.23 4.84 25.24 4.84 25.23"/><path class="cls-3" d="M2.41,15.87h0a1.36,1.36,0,0,1,0,.2c0,.33,0,.66,0,1a29.13,29.13,0,0,1-.17,3.1c0,.53-.09,1.05-.12,1.58,0,0,0,.09,0,.1s.05-.06.05-.1c0-.22,0-.43.07-.69l.06.22a1.24,1.24,0,0,0,.08-.41c0-.3,0-.61,0-.91s0-.52,0-.79a18.78,18.78,0,0,0,.06-2.6A3.18,3.18,0,0,0,2.41,15.87Z"/></g></g></svg>